<svg width="179" height="25" viewBox="0 0 179 25" fill="none" xmlns="http://www.w3.org/2000/svg">
<g id="Group">
<path id="Vector" fill-rule="evenodd" clip-rule="evenodd" d="M29.4522 0.470712C26.2402 0.470712 23.3043 1.66871 21.0983 3.63071C18.8913 1.66871 15.9563 0.480712 12.7443 0.480712H12.6603C5.82525 0.520712 0.28125 5.97571 0.28125 12.6907C0.28125 19.4347 5.85925 24.9007 12.7363 24.9007C15.9493 24.9007 18.8762 23.7007 21.0903 21.7407C23.3053 23.7007 26.2323 24.9007 29.4533 24.9007C36.3312 24.9007 41.9082 19.4267 41.9082 12.6807V12.6727C41.9172 5.93571 36.3372 0.462712 29.4522 0.470712Z" fill="#9FC9E4"/>
<path id="Vector_2" fill-rule="evenodd" clip-rule="evenodd" d="M12.6691 0.200684C5.83306 0.240684 0.289062 5.69768 0.289062 12.4107C0.289062 19.1557 5.86706 24.6207 12.7451 24.6207C15.9751 24.6207 18.9091 23.4147 21.1251 21.4367C21.5751 21.0347 21.9951 20.5917 22.3901 20.1317H19.8401C19.4971 19.7317 19.1871 19.3117 18.9101 18.8777H23.3221C23.5901 18.4577 23.8341 18.0237 24.0421 17.5727H18.1891C17.9871 17.1557 17.8191 16.7287 17.6691 16.2927H24.5621C24.9821 15.0797 25.2001 13.7747 25.2001 12.4207C25.2001 11.5257 25.1001 10.6477 24.9161 9.80268H17.2991C17.3911 9.36768 17.5091 8.94268 17.6511 8.52268H24.5461C24.3961 8.07268 24.2101 7.63668 24.0091 7.21868H18.1791C18.3891 6.77468 18.6241 6.34868 18.8921 5.93868H23.2871C22.9941 5.47868 22.6671 5.04368 22.3231 4.63368H19.8831C20.2601 4.19968 20.6791 3.78068 21.1331 3.40368C18.9181 1.42568 15.9731 0.219684 12.7451 0.219684C12.7191 0.200684 12.6951 0.200684 12.6691 0.200684Z" fill="#940E0E"/>
<path id="Vector_3" fill-rule="evenodd" clip-rule="evenodd" d="M41.916 12.4107C41.916 19.1557 36.338 24.6287 29.46 24.6287C22.584 24.6287 17.006 19.1637 16.998 12.4187V12.4107C16.998 5.66567 22.576 0.190674 29.453 0.190674C36.339 0.190674 41.916 5.66567 41.916 12.4107Z" fill="#FC6604"/>
<path id="Vector_4" fill-rule="evenodd" clip-rule="evenodd" d="M41.916 12.5507C41.916 19.2947 36.338 24.7677 29.46 24.7677C22.584 24.7677 17.006 19.3027 16.998 12.5577V12.5497C16.998 5.80371 22.576 0.329712 29.453 0.329712C36.339 0.329712 41.917 5.79571 41.917 12.5497L41.916 12.5507Z" fill="#FF9900"/>
<path id="Vector_5" fill-rule="evenodd" clip-rule="evenodd" d="M12.6691 0.330688C5.83306 0.373688 0.289062 5.83069 0.289062 12.5407C0.289062 19.2867 5.86706 24.7507 12.7451 24.7507C15.9751 24.7507 18.9091 23.5457 21.1251 21.5677C21.5751 21.1657 21.9951 20.7227 22.3901 20.2637H19.8401C19.4971 19.8607 19.1871 19.4437 18.9101 19.0077H23.3221C23.5901 18.5897 23.8341 18.1547 24.0421 17.7027H18.1891C17.9871 17.2847 17.8191 16.8577 17.6691 16.4227H24.5621C24.9821 15.2087 25.2001 13.9027 25.2001 12.5497C25.2001 11.6547 25.1001 10.7767 24.9161 9.93169H17.2991C17.3911 9.49669 17.5091 9.06969 17.6511 8.65169H24.5461C24.3961 8.19969 24.2101 7.76469 24.0091 7.34669H18.1791C18.3891 6.90369 18.6241 6.47669 18.8921 6.06669H23.2871C22.9941 5.60669 22.6671 5.17169 22.3231 4.76169H19.8831C20.2601 4.32669 20.6791 3.90869 21.1331 3.53169C18.9181 1.55369 15.9731 0.346688 12.7451 0.346688C12.7191 0.330688 12.6951 0.330688 12.6691 0.330688Z" fill="#CC0000"/>
<g id="Group_2">
<path id="Vector_6" fill-rule="evenodd" clip-rule="evenodd" d="M16.9717 15.9878L17.1398 14.8808C17.0478 14.8808 16.9137 14.9208 16.7968 14.9208C16.3348 14.9208 16.2848 14.6838 16.3098 14.5028L16.6797 12.2468H17.3838L17.5518 11.0238H16.8887L17.0218 10.2608H15.6967C15.6718 10.2848 14.9167 14.5358 14.9167 15.0528C14.9167 15.8158 15.3527 16.1608 15.9738 16.1528C16.4688 16.1528 16.8457 16.0208 16.9717 15.9878ZM17.3988 13.8808C17.3988 15.7178 18.6408 16.1508 19.6888 16.1508C20.6618 16.1508 21.0888 15.9388 21.0888 15.9388L21.3248 14.6838C21.3248 14.6838 20.5868 15.0038 19.9148 15.0038C18.4898 15.0038 18.7418 13.9618 18.7418 13.9618H21.4338C21.4338 13.9618 21.6098 13.1168 21.6098 12.7718C21.6098 11.9188 21.1748 10.8688 19.7238 10.8688C18.3818 10.8768 17.4008 12.2888 17.4008 13.8808H17.3988ZM19.7228 12.0408C20.4688 12.0408 20.3348 12.8608 20.3348 12.9358H18.8588C18.8588 12.8458 19.0018 12.0408 19.7228 12.0408ZM28.1188 15.9878L28.3528 14.5678C28.3528 14.5678 27.6988 14.8878 27.2548 14.8878C26.3148 14.8878 25.9377 14.1828 25.9377 13.4278C25.9377 11.8938 26.7498 11.0478 27.6478 11.0478C28.3278 11.0478 28.8638 11.4178 28.8638 11.4178L29.0818 10.0378C29.0818 10.0378 28.2768 9.71777 27.5888 9.71777C26.0548 9.71777 24.5708 11.0238 24.5708 13.4678C24.5708 15.0938 25.3758 16.1608 26.9608 16.1608C27.4058 16.1608 28.1188 15.9878 28.1188 15.9878ZM9.68275 10.9008C8.77675 10.9008 8.07275 11.1878 8.07275 11.1878L7.87875 12.3108C7.87875 12.3108 8.45875 12.0808 9.32275 12.0808C9.81675 12.0808 10.1777 12.1408 10.1777 12.5338C10.1777 12.7718 10.1347 12.8618 10.1347 12.8618C10.1347 12.8618 9.74875 12.8298 9.56475 12.8298C8.41475 12.8298 7.21475 13.3058 7.21475 14.7598C7.21475 15.8998 8.00475 16.1618 8.49975 16.1618C9.43975 16.1618 9.84175 15.5618 9.85775 15.5618L9.81575 16.0618H10.9817L11.5017 12.4858C11.5017 10.9508 10.1517 10.9018 9.68175 10.9018L9.68275 10.9008ZM9.96775 13.8138C9.99275 14.0338 9.82475 15.0608 9.02775 15.0608C8.61775 15.0608 8.50775 14.7488 8.50775 14.5688C8.50775 14.2158 8.70075 13.7888 9.67375 13.7888C9.89975 13.7808 9.92475 13.8058 9.96775 13.8138ZM12.7448 16.1208C13.0468 16.1208 14.7487 16.1938 14.7487 14.4608C14.7487 12.8458 13.1718 13.1658 13.1718 12.5168C13.1718 12.1968 13.4317 12.0908 13.9017 12.0908C14.0868 12.0908 14.8077 12.1478 14.8077 12.1478L14.9747 10.9978C14.9747 10.9978 14.5048 10.9008 13.7498 10.9008C12.7698 10.9008 11.7697 11.2868 11.7697 12.5988C11.7697 14.0848 13.4297 13.9368 13.4297 14.5688C13.4297 14.9868 12.9697 15.0188 12.6097 15.0188C11.9897 15.0188 11.4347 14.8148 11.4347 14.8228L11.2587 15.9628C11.2847 15.9728 11.6287 16.1198 12.7448 16.1198V16.1208ZM39.1057 9.86677L38.8207 11.6068C38.8207 11.6068 38.3167 10.9338 37.5367 10.9338C36.3207 10.9338 35.3067 12.3698 35.3067 14.0188C35.3067 15.0858 35.8428 16.1288 36.9497 16.1288C37.7477 16.1288 38.1838 15.5858 38.1838 15.5858L38.1257 16.0538H39.4257L40.4398 9.86677H39.1068H39.1057ZM38.4937 13.2638C38.4937 13.9538 38.1497 14.8638 37.4277 14.8638C36.9478 14.8638 36.7227 14.4698 36.7227 13.8538C36.7227 12.8458 37.1827 12.1808 37.7707 12.1808C38.2407 12.1808 38.4937 12.5008 38.4937 13.2638ZM2.49475 16.0538L3.30075 11.3838L3.41775 16.0538H4.33075L6.04075 11.3838L5.28675 16.0538H6.64475L7.69275 9.85877H5.59875L4.28175 13.6658L4.21475 9.86577H2.27675L1.21875 16.0548M22.9348 16.0608C23.3208 13.9108 23.3948 12.1648 24.3108 12.4848C24.4708 11.6478 24.6287 11.3278 24.8057 10.9748C24.8057 10.9748 24.7218 10.9578 24.5458 10.9578C23.9498 10.9578 23.5138 11.7538 23.5138 11.7538L23.6308 11.0238H22.3988L21.5688 16.0618H22.9348V16.0608ZM31.1788 10.9008C30.2738 10.9008 29.5688 11.1878 29.5688 11.1878L29.3768 12.3118C29.3768 12.3118 29.9548 12.0818 30.8188 12.0818C31.3138 12.0818 31.6748 12.1418 31.6748 12.5348C31.6748 12.7728 31.6328 12.8628 31.6328 12.8628C31.6328 12.8628 31.2467 12.8308 31.0627 12.8308C29.9128 12.8308 28.7128 13.3068 28.7128 14.7608C28.7128 15.9008 29.5028 16.1628 29.9967 16.1628C30.9368 16.1628 31.3388 15.5628 31.3568 15.5628L31.3138 16.0628H32.4797L32.9998 12.4868C32.9998 10.9518 31.6497 10.9028 31.1798 10.9028L31.1788 10.9008ZM31.4648 13.8138C31.4897 14.0338 31.3218 15.0608 30.5247 15.0608C30.1147 15.0608 30.0048 14.7488 30.0048 14.5688C30.0048 14.2158 30.2068 13.7888 31.1708 13.7888C31.4058 13.7808 31.4228 13.8058 31.4648 13.8138ZM34.0728 16.0608C34.4588 13.9108 34.5347 12.1648 35.4487 12.4848C35.6087 11.6478 35.7687 11.3278 35.9437 10.9748C35.9437 10.9748 35.8597 10.9578 35.6917 10.9578C35.0967 10.9578 34.6617 11.7538 34.6617 11.7538L34.7777 11.0238H33.5437L32.7138 16.0618H34.0718L34.0728 16.0608Z" fill="white"/>
</g>
<g id="Group_3">
<path id="Vector_7" fill-rule="evenodd" clip-rule="evenodd" d="M162.295 13.4307V4.48574C164.105 5.17874 165.391 6.91774 165.391 8.95774C165.391 10.9977 164.111 12.7357 162.295 13.4277V13.4307ZM160.555 17.2327H164.465C169.008 17.2587 173.155 13.5467 173.155 9.04274C173.155 4.11074 169.008 0.70874 164.465 0.70874H160.555C155.953 0.70874 152.168 4.11074 152.168 9.04174C152.168 13.5567 155.952 17.2597 160.553 17.2337L160.555 17.2327ZM160.571 1.39274C164.777 1.39274 168.184 4.77874 168.184 8.95874C168.184 13.1387 164.777 16.5227 160.571 16.5227C156.365 16.5227 152.967 13.1377 152.958 8.95874C152.966 4.77874 156.372 1.39374 160.57 1.39374L160.571 1.39274ZM155.751 8.95874C155.751 6.91874 157.038 5.17874 158.847 4.48674V13.4297C157.037 12.7357 155.751 10.9967 155.751 8.95774V8.95874Z" fill="#1B458E"/>
<path id="Vector_8" fill-rule="evenodd" clip-rule="evenodd" d="M168.993 24.3158C167.411 24.3158 166.413 23.2858 166.413 21.7508C166.413 20.3508 167.651 19.3548 168.977 19.3548C169.527 19.3548 170.055 19.5318 170.574 19.7168L170.638 20.6898H170.471C170.344 19.8928 169.785 19.5698 169.026 19.5698C168.251 19.5698 167.116 20.0938 167.116 21.7258C167.116 23.1008 168.091 24.0888 169.13 24.0888C169.8 24.0888 170.35 23.6218 170.487 22.9148L170.637 22.9548L170.487 23.9518C170.207 24.1288 169.44 24.3138 168.993 24.3138V24.3158ZM157.347 24.2108C157.107 24.2108 156.877 24.1948 156.627 24.1948C156.381 24.1948 156.141 24.2028 155.901 24.2108V24.0338H156.021C156.214 24.0338 156.351 24.0338 156.351 23.8088V22.0488C156.351 21.6618 156.111 21.4688 155.727 21.4688C155.511 21.4688 155.167 21.6458 154.944 21.7988V23.8168C154.944 24.0418 155.096 24.0418 155.287 24.0418H155.407V24.2198C155.167 24.2198 154.937 24.2038 154.687 24.2038C154.449 24.2038 154.201 24.2118 153.961 24.2198V24.0428H154.081C154.273 24.0428 154.409 24.0428 154.409 23.8188V22.0188C154.409 21.7688 154.337 21.6968 154.017 21.5688V21.4388C154.305 21.3428 154.584 21.2538 154.912 21.1088C154.929 21.1088 154.952 21.1258 154.952 21.1818V21.6218C155.336 21.3418 155.672 21.1168 156.127 21.1168C156.702 21.1168 156.902 21.5348 156.902 22.0728V23.8268C156.902 24.0518 157.046 24.0518 157.237 24.0518H157.357L157.349 24.2118L157.347 24.2108ZM161.037 22.2088V23.8088C161.037 24.0338 161.173 24.0338 161.365 24.0338H161.74V24.2108C161.365 24.2028 161.085 24.1948 160.798 24.1948C160.518 24.1948 160.238 24.2028 159.991 24.2108V24.0338H160.176C160.366 24.0338 160.503 24.0338 160.503 23.8088V21.8958C160.503 21.6858 160.256 21.6378 160.153 21.5898V21.4838C160.647 21.2738 160.919 21.0988 160.973 21.0988C161.013 21.0988 161.038 21.1138 161.038 21.1858V21.7958H161.054C161.222 21.5318 161.51 21.0978 161.917 21.0978C162.085 21.0978 162.3 21.2078 162.3 21.4578C162.3 21.6428 162.172 21.8038 161.98 21.8038C161.772 21.8038 161.772 21.6438 161.533 21.6438C161.413 21.6438 161.037 21.7958 161.037 22.2058V22.2088ZM163.993 23.6158C163.993 22.8118 162.523 23.0688 162.523 21.9758C162.523 21.5978 162.827 21.1078 163.569 21.1078C163.784 21.1078 164.072 21.1718 164.343 21.3078L164.391 21.9998H164.231C164.161 21.5728 163.928 21.3238 163.489 21.3238C163.217 21.3238 162.961 21.4838 162.961 21.7738C162.961 22.5698 164.527 22.3288 164.527 23.3978C164.527 23.8478 164.167 24.3228 163.361 24.3228C163.089 24.3228 162.771 24.2258 162.538 24.0888L162.465 23.3088L162.585 23.2758C162.673 23.7258 162.945 24.1058 163.44 24.1058C163.84 24.0958 163.99 23.8558 163.99 23.6138L163.993 23.6158ZM159.759 22.3378L159.822 22.2978C159.83 22.2578 159.83 22.2178 159.83 22.1778C159.823 21.4528 159.232 21.1078 158.69 21.1078C158.218 21.1078 157.323 21.5018 157.323 22.8358C157.323 23.2698 157.539 24.3238 158.617 24.3238C159.177 24.3238 159.56 23.9698 159.871 23.5518L159.776 23.4558C159.529 23.7058 159.233 23.9158 158.866 23.9158C158.323 23.9158 157.916 23.3838 157.876 22.7408C157.859 22.5068 157.859 22.4108 157.876 22.3458L159.759 22.3378ZM158.656 21.3248C159.032 21.3248 159.246 21.6048 159.246 21.9518C159.246 22.0318 159.231 22.1218 159.056 22.1218H157.881C157.961 21.6318 158.249 21.3258 158.656 21.3258V21.3248ZM149.286 24.2108C151.683 24.2108 152.074 22.5148 152.074 21.8388C152.074 20.6328 151.124 19.4588 149.367 19.4588C148.863 19.4588 148.48 19.4748 148.193 19.4748C147.929 19.4748 147.657 19.4748 147.393 19.4588V19.6358C147.697 19.6438 148.017 19.6038 148.017 20.2158V23.5198C148.001 23.9848 147.801 23.9928 147.394 24.0328V24.2098C147.697 24.2018 147.994 24.1938 148.304 24.1938C148.624 24.2018 148.934 24.2098 149.287 24.2098L149.286 24.2108ZM148.68 19.7088C148.8 19.7008 148.928 19.6848 149.208 19.6848C150.51 19.6848 151.325 20.6008 151.325 21.8788C151.325 22.8918 150.845 24.0018 149.385 24.0018C149.055 24.0018 148.681 23.9388 148.681 23.4158V19.7098L148.68 19.7088ZM152.698 19.7168C152.698 19.5468 152.858 19.3868 153.026 19.3868C153.202 19.3868 153.361 19.5318 153.361 19.7168C153.361 19.9018 153.211 20.0618 153.027 20.0618C152.859 20.0548 152.699 19.8948 152.699 19.7178L152.698 19.7168ZM171.333 23.8088V20.0138C171.333 19.5718 171.229 19.5558 170.973 19.4838V19.3788C171.245 19.2908 171.525 19.1688 171.669 19.0888C171.739 19.0488 171.796 19.0168 171.819 19.0168C171.859 19.0168 171.875 19.0568 171.875 19.1138V23.8168C171.875 24.0418 172.027 24.0418 172.211 24.0418H172.323V24.2198C172.091 24.2198 171.859 24.2038 171.613 24.2038C171.373 24.2038 171.125 24.2118 170.877 24.2198V24.0428H171.005C171.205 24.0428 171.332 24.0428 171.332 23.8108L171.333 23.8088ZM153.043 24.2028C152.803 24.2028 152.555 24.2108 152.307 24.2188V24.0418H152.435C152.627 24.0418 152.762 24.0418 152.762 23.8178V21.9678C152.762 21.6708 152.659 21.6308 152.412 21.4948V21.3898C152.73 21.2938 153.106 21.1648 153.13 21.1398C153.178 21.1168 153.218 21.1098 153.25 21.1098C153.282 21.1098 153.298 21.1498 153.298 21.2048V23.8178C153.298 24.0428 153.448 24.0428 153.633 24.0428H153.745V24.2208C153.529 24.2128 153.29 24.2048 153.042 24.2048L153.043 24.2028ZM176.03 20.0228V22.9488C176.03 23.3668 175.998 23.7608 175.934 24.1628L176.078 24.2348L176.278 24.0748C176.453 24.1468 176.718 24.3148 177.22 24.3148C178.187 24.3148 178.842 23.4228 178.842 22.5308C178.842 21.7908 178.37 21.1008 177.58 21.1008C177.212 21.1008 176.845 21.3568 176.573 21.5908V19.1058C176.573 19.0488 176.557 19.0088 176.517 19.0088C176.493 19.0088 176.445 19.0408 176.365 19.0818C176.222 19.1618 175.942 19.2918 175.67 19.3718V19.4848C175.926 19.5648 176.03 19.5808 176.03 20.0228ZM176.573 21.7908C176.757 21.6308 176.963 21.4688 177.213 21.4688C177.739 21.4688 178.29 22.0788 178.29 22.8188C178.29 23.4228 177.987 24.1388 177.26 24.1388C176.805 24.1388 176.565 23.7048 176.565 23.4468V21.7908H176.573ZM173.273 23.1578C173.273 23.3578 173.273 23.9458 173.865 23.9458C174.097 23.9458 174.4 23.7688 174.68 23.5358V21.7028C174.68 21.5658 174.353 21.4928 174.113 21.4208V21.3008C174.72 21.2608 175.103 21.2038 175.167 21.2038C175.223 21.2038 175.223 21.2518 175.223 21.3238V23.8408C175.223 23.9608 175.295 23.9708 175.415 23.9708C175.495 23.9708 175.599 23.9608 175.685 23.9608V24.1068C175.391 24.1308 174.84 24.2748 174.712 24.3168L174.68 24.2988V23.7448C174.273 24.0748 173.96 24.3148 173.482 24.3148C173.114 24.3148 172.739 24.0748 172.739 23.5048V21.7588C172.739 21.5818 172.714 21.4128 172.331 21.3808V21.2508C172.571 21.2438 173.113 21.2038 173.201 21.2038C173.273 21.2038 173.273 21.2518 173.273 21.4038V23.1578Z" fill="#231F20"/>
</g>
<g id="Group_4">
<path id="Vector_9" fill-rule="evenodd" clip-rule="evenodd" d="M80.7946 19.0308C80.8746 19.1448 81.0046 19.2108 81.1526 19.2108H84.1806C84.3606 19.2108 84.5106 19.1068 84.5806 18.9538C84.9486 18.0078 85.1876 17.4158 85.2676 17.2138H90.1176C90.2076 17.5678 90.4176 18.5038 90.5076 18.8868C90.5476 19.0688 90.7156 19.2018 90.9146 19.2018H93.5546C93.6846 19.2018 93.8046 19.1458 93.8846 19.0518C93.9626 18.9548 93.9926 18.8318 93.9626 18.7068L91.0946 6.22677C91.0546 6.04477 90.8846 5.91077 90.6846 5.91077H88.1066C87.0706 5.91077 86.4826 6.24477 86.1246 7.00877L80.7746 18.6288C80.7046 18.7718 80.7146 18.9158 80.7946 19.0288V19.0308ZM88.3546 9.51277L88.6146 10.6588L89.4896 14.5008H86.3426L88.3546 9.51277ZM70.5056 18.6108C71.5016 18.9438 72.8956 19.1548 74.2306 19.1638C78.0566 19.1638 80.5466 17.4438 80.5766 14.7778C80.5866 13.3158 79.6196 12.2078 77.5286 11.2998C76.2436 10.7058 75.4666 10.3048 75.4666 9.70277C75.4666 9.15777 76.1836 8.60277 77.5586 8.60277H77.6686C78.8136 8.60277 79.6186 8.85277 80.1286 9.04277C80.2486 9.09077 80.3766 9.08277 80.4866 9.01477C80.5966 8.95777 80.6766 8.85177 80.6966 8.72777L81.0346 6.79777C81.0746 6.59777 80.9446 6.40577 80.7446 6.34777C80.1176 6.15777 79.1026 5.92777 77.8276 5.92777C74.2216 5.92777 71.6916 7.66777 71.6716 10.1618C71.6516 12.0058 73.4856 13.0378 74.8596 13.6488C76.2746 14.2788 76.7526 14.6808 76.7426 15.2348C76.7326 16.0948 75.6076 16.4868 74.5626 16.4868C73.0786 16.4868 72.2826 16.2768 71.1456 15.8168C71.0256 15.7698 70.8956 15.7788 70.7776 15.8368C70.6676 15.8938 70.5876 15.9988 70.5676 16.1228L70.2096 18.1488C70.1996 18.3488 70.3196 18.5408 70.5096 18.6088L70.5056 18.6108Z" fill="#030B91"/>
<path id="Vector_10" fill-rule="evenodd" clip-rule="evenodd" d="M49.3699 6.67475C51.7899 7.50475 53.7619 8.83475 55.0869 10.5067C55.1669 10.6117 55.2969 10.6687 55.4269 10.6687C55.4869 10.6687 55.5449 10.6587 55.6049 10.6307C55.7849 10.5537 55.8849 10.3627 55.8449 10.1807L55.1369 6.99075C55.1369 6.98075 55.1369 6.98075 55.1269 6.97075C54.8769 6.06275 54.0709 5.92075 53.4939 5.90075H53.4739L49.5089 5.89075C49.2989 5.89075 49.1289 6.03375 49.0889 6.22575C49.0589 6.41575 49.1689 6.60775 49.3689 6.67575L49.3699 6.67475Z" fill="#FF9F02"/>
<path id="Vector_11" fill-rule="evenodd" clip-rule="evenodd" d="M64.0123 19.0688C64.0923 19.1638 64.2123 19.2118 64.3303 19.2118H67.2503C67.4583 19.2118 67.6273 19.0698 67.6673 18.8788L69.8873 6.38878C69.9073 6.27378 69.8773 6.14878 69.7993 6.06378C69.7193 5.97778 69.5993 5.92078 69.4793 5.92078H66.5513C66.3413 5.92078 66.1713 6.06278 66.1313 6.25378L63.9113 18.7438C63.8913 18.8578 63.9223 18.9738 64.0123 19.0688ZM52.3383 8.78678C52.1883 8.68078 51.9903 8.67178 51.8403 8.77678C51.6903 8.87278 51.6203 9.05378 51.6703 9.22678L54.6303 18.9168C54.6803 19.0868 54.8483 19.2018 55.0373 19.2018H58.4443C58.6143 19.2018 58.7643 19.1078 58.8323 18.9548L64.4203 6.48478C64.4803 6.35978 64.4603 6.21678 64.3803 6.10178C64.3003 5.98778 64.1703 5.92178 64.0323 5.92178H60.9543C60.7843 5.92178 60.6243 6.02578 60.5643 6.17878L56.9703 14.9888L56.5803 13.6418C56.5703 13.6218 56.5703 13.6038 56.5603 13.5938C55.9843 12.3338 54.4603 10.3528 52.3383 8.78678Z" fill="#030B91"/>
</g>
<g id="Group_5">
<path id="Vector_12" fill-rule="evenodd" clip-rule="evenodd" d="M118.203 11.1187H115.231V7.46873H118.203V8.22873H116.115V8.88673H118.15V9.63473H116.116V10.3647H118.204L118.203 11.1187ZM111.573 11.1187L110.277 8.26273V11.1187H108.462L108.122 10.3047H106.268L105.921 11.1187H104.951L106.546 7.46873H107.869L109.386 10.9227V7.46873H110.843L112.006 9.94073L113.076 7.46873H114.56V11.1187H113.65L113.643 8.26273L112.353 11.1187H111.575H111.573ZM107.799 9.54373L107.187 8.09373L106.582 9.54373H107.799ZM122.215 14.9497C122.215 15.9637 121.445 16.1717 120.665 16.1717H119.555V17.3947H117.825L116.723 16.1917L115.579 17.4017H112.049V13.7517H115.632L116.73 14.9487L117.86 13.7507H120.713C121.419 13.7447 122.217 13.9407 122.217 14.9477L122.215 14.9497ZM116.151 15.5667L115.173 14.5067H112.939V15.1697H114.894V15.9117H112.939V16.6417H115.127L116.151 15.5667ZM118.664 14.1427L117.294 15.5797L118.664 17.0697V14.1427ZM121.257 14.9487C121.257 14.6287 121.037 14.4987 120.712 14.4987H119.55V15.4287H120.7C121.046 15.4287 121.257 15.2667 121.257 14.9487ZM119.715 11.1167H118.825V7.46673H120.872C121.325 7.46673 121.664 7.47973 121.95 7.64273C122.23 7.80473 122.402 8.04573 122.402 8.44873C122.402 9.02873 122.002 9.33373 121.777 9.41873C121.97 9.48873 122.137 9.61873 122.217 9.72373C122.342 9.90673 122.362 10.0687 122.362 10.3937V11.1097H121.465L121.458 10.6497C121.458 10.4277 121.478 10.1157 121.318 9.93973C121.185 9.80973 120.992 9.78373 120.668 9.78373H119.716V11.1177L119.715 11.1167ZM119.715 9.04073H120.799C120.971 9.04073 121.119 9.04073 121.237 8.97073C121.35 8.91073 121.424 8.78073 121.424 8.62473C121.424 8.46873 121.35 8.35773 121.237 8.29973C121.131 8.24173 120.971 8.23573 120.812 8.23573H119.716V9.04173L119.715 9.04073ZM123.825 7.47373H122.913V11.1237H123.823V7.47373H123.825ZM124.742 10.7137C124.43 10.4007 124.264 9.98373 124.264 9.32073C124.264 8.78073 124.364 8.28673 124.744 7.89573C125.029 7.60373 125.481 7.47373 126.092 7.47373H126.957V8.25373H126.112C125.787 8.25373 125.6 8.29973 125.428 8.46873C125.275 8.62473 125.175 8.91073 125.175 9.29473C125.175 9.68473 125.255 9.96473 125.421 10.1547C125.561 10.2967 125.806 10.3417 126.038 10.3417H126.438L127.694 7.47373H129.03L130.54 10.9207V7.47573H131.895L133.465 10.0127V7.47573H134.375V11.1257H133.112L131.422 8.38573V11.1257H129.608L129.262 10.3117H127.414L127.081 11.1257H126.031C125.599 11.1197 125.048 11.0287 124.741 10.7157L124.742 10.7137ZM127.728 9.54173H128.958L128.34 8.09173L127.728 9.54173ZM125.86 8.89773C125.853 8.90973 125.787 9.03973 125.787 9.29373C125.787 9.54073 125.827 9.66373 125.86 9.71673C125.893 9.72173 125.946 9.73673 126.033 9.73673L126.419 8.85073H126.113C125.907 8.85073 125.887 8.87673 125.861 8.89573L125.86 8.89773ZM140.585 0.990732V23.8807C140.585 24.4287 140.133 24.8707 139.575 24.8707H102.369C101.811 24.8707 101.359 24.4287 101.359 23.8807V0.990732C101.359 0.442732 101.811 0.000732422 102.369 0.000732422H139.579C140.131 0.000732422 140.583 0.442732 140.583 0.990732H140.585ZM111.575 11.7237H112.359C112.605 11.7237 112.824 11.5807 112.924 11.3657L113.044 11.1057V11.1187C113.044 11.4487 113.316 11.7167 113.662 11.7167H114.572C114.699 11.7167 114.806 11.6717 114.905 11.6067C115.005 11.6717 115.111 11.7167 115.238 11.7167H118.208C118.322 11.7167 118.428 11.6767 118.515 11.6267C118.608 11.6767 118.708 11.7167 118.821 11.7167H119.711C120.051 11.7167 120.331 11.4497 120.331 11.1117V10.3917H120.669C120.749 10.3917 120.803 10.3917 120.843 10.3977C120.85 10.4627 120.843 10.5337 120.843 10.5797V10.6577L120.85 11.1197C120.85 11.4497 121.13 11.7177 121.47 11.7177H122.367C122.467 11.7177 122.56 11.6857 122.647 11.6477C122.733 11.6917 122.827 11.7177 122.925 11.7177H123.835C124.135 11.7177 124.368 11.5097 124.428 11.2297C124.933 11.6467 125.645 11.7177 126.044 11.7177H127.088C127.334 11.7177 127.568 11.5677 127.653 11.3407L127.833 10.9037H128.857L129.043 11.3457C129.143 11.5677 129.363 11.7157 129.608 11.7157H131.423C131.763 11.7157 132.043 11.4497 132.043 11.1117V10.5417L132.587 11.4247C132.7 11.6077 132.899 11.7177 133.112 11.7177H134.376C134.716 11.7177 134.994 11.4507 134.994 11.1127V7.46373C134.994 7.13173 134.721 6.85873 134.376 6.85873H133.466C133.126 6.85873 132.846 7.12473 132.846 7.46373V7.84073L132.421 7.15073C132.309 6.96773 132.109 6.85773 131.896 6.85773H130.54C130.2 6.85773 129.92 7.12373 129.92 7.46273V7.97673L129.595 7.22673C129.495 7.00673 129.275 6.86373 129.029 6.86373H127.692C127.559 6.86373 127.426 6.90973 127.326 6.98073C127.226 6.90273 127.094 6.86373 126.961 6.86373H126.096C125.366 6.86373 124.819 7.03973 124.42 7.37773C124.375 7.09173 124.13 6.86373 123.823 6.86373H122.913C122.673 6.86373 122.467 7.00673 122.367 7.20173C122.327 7.17673 122.3 7.14473 122.254 7.11873C121.834 6.88473 121.396 6.86473 120.864 6.86473H118.816C118.703 6.86473 118.596 6.90473 118.51 6.95473C118.417 6.90473 118.317 6.86473 118.204 6.86473H115.232C115.106 6.86473 114.999 6.91073 114.9 6.97473C114.8 6.91073 114.694 6.86473 114.567 6.86473H113.084C112.838 6.86473 112.612 7.00773 112.519 7.23473L111.986 8.45873L111.401 7.22273C111.301 7.00873 111.081 6.87273 110.843 6.87273H109.386C109.046 6.87273 108.768 7.13873 108.768 7.47773V8.00473L108.434 7.24273C108.334 7.02273 108.114 6.87873 107.869 6.87873H106.547C106.301 6.87873 106.075 7.02173 105.982 7.24273L104.386 10.8927C104.306 11.0827 104.326 11.2897 104.439 11.4587C104.552 11.6287 104.745 11.7317 104.951 11.7317H105.921C106.168 11.7317 106.394 11.5817 106.487 11.3597L106.673 10.9177H107.703L107.89 11.3597C107.984 11.5877 108.21 11.7297 108.463 11.7297H110.278C110.618 11.7297 110.898 11.4637 110.898 11.1257V11.1127L111.016 11.3727C111.11 11.5827 111.329 11.7257 111.576 11.7257L111.575 11.7237ZM137.605 16.2437C137.605 15.7367 137.465 15.3537 137.161 15.0477L137.141 15.0277C137.314 14.9177 137.421 14.7357 137.421 14.5207V13.7467C137.421 13.4147 137.147 13.1417 136.808 13.1417H135.018C134.46 13.1417 134.048 13.3047 133.742 13.5457C133.655 13.3117 133.436 13.1427 133.17 13.1427H131.388C130.896 13.1427 130.51 13.2607 130.218 13.4557C130.111 13.2737 129.918 13.1437 129.686 13.1437H126.713C126.473 13.1437 126.275 13.2807 126.168 13.4767C126.128 13.4507 126.095 13.4117 126.048 13.3847C125.616 13.1587 125.158 13.1447 124.685 13.1447H122.631C122.391 13.1447 122.185 13.2817 122.086 13.4777C121.773 13.2757 121.334 13.1457 120.709 13.1457H117.864C117.691 13.1457 117.532 13.2177 117.412 13.3417L116.742 14.0517L116.096 13.3477C115.982 13.2177 115.816 13.1477 115.636 13.1477H112.053C111.713 13.1477 111.433 13.4137 111.433 13.7517V17.4017C111.433 17.7317 111.707 18.0057 112.053 18.0057H115.583C115.756 18.0057 115.916 17.9357 116.036 17.8107L116.714 17.0887L117.359 17.7987C117.479 17.9287 117.645 17.9987 117.819 17.9987H119.547C119.887 17.9987 120.165 17.7327 120.165 17.3947V16.7687H120.657C121.255 16.7687 121.694 16.6457 122.013 16.4637V17.3857C122.013 17.7177 122.286 17.9907 122.633 17.9907H123.529C123.869 17.9907 124.149 17.7247 124.149 17.3857V16.6577H124.487C124.567 16.6577 124.627 16.6577 124.667 16.6637C124.673 16.7287 124.673 16.8067 124.667 16.8587V17.3857C124.667 17.7177 124.939 17.9907 125.285 17.9907H126.175C126.275 17.9907 126.362 17.9647 126.449 17.9257C126.529 17.9657 126.621 17.9907 126.721 17.9907H129.693C129.793 17.9907 129.88 17.9647 129.959 17.9257C130.039 17.9657 130.126 17.9907 130.225 17.9907H131.961C132.513 17.9907 132.965 17.8607 133.297 17.6267C133.39 17.8417 133.61 17.9907 133.863 17.9907H135.598C136.854 18.0037 137.605 17.3467 137.605 16.2477V16.2437ZM132.067 15.1777L131.587 15.1647C131.437 15.1647 131.337 15.1577 131.243 15.1247C131.13 15.0867 131.05 14.9887 131.05 14.8527C131.05 14.7357 131.084 14.6507 131.184 14.5927C131.27 14.5327 131.377 14.5267 131.544 14.5267H133.179V13.7527H131.396C130.458 13.7527 130.119 14.3057 130.119 14.8397C130.119 15.9897 131.163 15.9377 131.994 15.9637C132.154 15.9637 132.24 15.9897 132.314 16.0417C132.374 16.0937 132.42 16.1787 132.42 16.2817C132.42 16.3797 132.38 16.4647 132.314 16.5237C132.241 16.5937 132.121 16.6137 131.949 16.6137H130.219V17.3937H131.954C132.852 17.3937 133.357 17.0307 133.357 16.2437C133.357 15.8667 133.264 15.6437 133.091 15.4697C132.885 15.2747 132.553 15.1897 132.067 15.1767V15.1777ZM125.584 15.7047C125.784 15.7747 125.944 15.9067 126.016 16.0107C126.143 16.1857 126.163 16.3547 126.163 16.6737V17.3957H125.273V16.9407C125.273 16.7207 125.293 16.3937 125.125 16.2247C124.992 16.0947 124.799 16.0627 124.475 16.0627H123.523V17.3957H122.625V13.7457H124.68C125.133 13.7457 125.46 13.7657 125.75 13.9157C126.03 14.0787 126.21 14.3127 126.21 14.7287C126.217 15.3147 125.817 15.6137 125.584 15.7047ZM125.232 14.8977C125.232 14.7417 125.165 14.6317 125.046 14.5727C124.939 14.5077 124.78 14.5077 124.62 14.5077H123.524V15.3277H124.608C124.781 15.3277 124.928 15.3207 125.048 15.2497C125.166 15.1767 125.233 15.0527 125.233 14.8967L125.232 14.8977ZM126.708 17.3957H129.678V16.6417L127.591 16.6357V15.9137H129.626V15.1657H127.591V14.5007H129.679V13.7467H126.709V17.3967L126.708 17.3957ZM135.703 15.1777L135.225 15.1647C135.072 15.1647 134.972 15.1577 134.879 15.1247C134.767 15.0867 134.687 14.9887 134.687 14.8527C134.687 14.7357 134.72 14.6507 134.82 14.5927C134.907 14.5327 135.014 14.5267 135.18 14.5267H136.816V13.7527H135.026C134.096 13.7527 133.75 14.3057 133.75 14.8397C133.75 15.9897 134.794 15.9377 135.626 15.9637C135.779 15.9637 135.872 15.9897 135.946 16.0417C136.006 16.0937 136.051 16.1787 136.051 16.2817C136.051 16.3797 136.006 16.4647 135.946 16.5237C135.873 16.5937 135.753 16.6137 135.58 16.6137H133.85V17.3937H135.586C136.483 17.3937 136.982 17.0307 136.982 16.2437C136.982 15.8667 136.889 15.6437 136.716 15.4697C136.523 15.2747 136.191 15.1897 135.706 15.1767L135.703 15.1777Z" fill="#007CC3"/>
</g>
</g>
</svg>
