<svg width="24" height="24" viewBox="0 0 24 24" fill="none" xmlns="http://www.w3.org/2000/svg">
<path d="M6 7.771L7.083 8.853C7.13428 8.90432 7.19612 8.94387 7.26421 8.9689C7.33231 8.99393 7.40504 9.00384 7.47735 8.99794C7.54966 8.99204 7.61983 8.97047 7.68297 8.93474C7.74611 8.899 7.80072 8.84996 7.843 8.791L10 5.771M13.5 7.5H17.5M6 12.771L7.083 13.853C7.13428 13.9043 7.19612 13.9439 7.26421 13.9689C7.33231 13.9939 7.40504 14.0038 7.47735 13.9979C7.54966 13.992 7.61983 13.9705 7.68297 13.9347C7.74611 13.899 7.80072 13.85 7.843 13.791L10 10.771M13.5 12.5H17.5M6 17.771L7.083 18.853C7.13428 18.9043 7.19612 18.9439 7.26421 18.9689C7.33231 18.9939 7.40504 19.0038 7.47735 18.9979C7.54966 18.992 7.61983 18.9705 7.68297 18.9347C7.74611 18.899 7.80072 18.85 7.843 18.791L10 15.771M13.5 17.5H17.5M20.207 5.5C20.3945 5.68749 20.4999 5.9418 20.5 6.207V21.5C20.5 21.7652 20.3946 22.0196 20.2071 22.2071C20.0196 22.3946 19.7652 22.5 19.5 22.5H4.5C4.23478 22.5 3.98043 22.3946 3.79289 22.2071C3.60536 22.0196 3.5 21.7652 3.5 21.5V2.5C3.5 2.23478 3.60536 1.98043 3.79289 1.79289C3.98043 1.60536 4.23478 1.5 4.5 1.5H15.793C16.0582 1.50006 16.3125 1.60545 16.5 1.793L20.207 5.5Z" stroke="currentColor" stroke-width="1.5" stroke-linecap="round" stroke-linejoin="round"/>
</svg>
