<?xml version="1.0" encoding="UTF-8" standalone="no"?>
<svg
   id="Ebene_1"
   data-name="Ebene 1"
   viewBox="0 0 660.77 119.48"
   version="1.1"
   sodipodi:docname="2-brands-logo6.svg"
   inkscape:version="1.3.2 (091e20ef0f, 2023-11-25)"
   xmlns:inkscape="http://www.inkscape.org/namespaces/inkscape"
   xmlns:sodipodi="http://sodipodi.sourceforge.net/DTD/sodipodi-0.dtd"
   xmlns="http://www.w3.org/2000/svg"
   xmlns:svg="http://www.w3.org/2000/svg">
  <sodipodi:namedview
     id="namedview44"
     pagecolor="#ffffff"
     bordercolor="#000000"
     borderopacity="0.25"
     inkscape:showpageshadow="2"
     inkscape:pageopacity="0.0"
     inkscape:pagecheckerboard="0"
     inkscape:deskcolor="#d1d1d1"
     inkscape:zoom="2.2110567"
     inkscape:cx="330.38501"
     inkscape:cy="59.699961"
     inkscape:window-width="1920"
     inkscape:window-height="1051"
     inkscape:window-x="1280"
     inkscape:window-y="0"
     inkscape:window-maximized="1"
     inkscape:current-layer="Ebene_1" />
  <defs
     id="defs1">
    <style
       id="style1">
      .cls-1 {
        fill: #010101;
      }

      .cls-1, .cls-2, .cls-3, .cls-4, .cls-5 {
        stroke-width: 0px;
      }

      .cls-6 {
        fill: none;
        stroke: #dadada;
        stroke-miterlimit: 10;
        stroke-width: 1.5px;
      }

      .cls-2 {
        fill: #fff;
      }

      .cls-3 {
        fill: #0f55a3;
      }

      .cls-4 {
        fill: #07b2c0;
      }

      .cls-5 {
        fill: #075faa;
      }
    </style>
  </defs>
  <polygon
     class="cls-4"
     points="426.21 26.53 433.86 26.53 412.65 92.07 405 92.07 426.21 26.53"
     id="polygon4" />
  <path
     class="cls-1"
     d="m171.14,92.07h7.3V26.53h-7.3s0,65.55,0,65.55Zm65.72-18.26c0,6.09-4.87,10.95-10.95,10.95h-21.91v-21.91h21.91c6.09,0,10.95,4.87,10.95,10.95m-1.22-29.03c0,6.09-4.87,10.95-10.95,10.95h-20.69v-21.91h20.69c6.09,0,10.95,4.87,10.95,10.95m.7,14.08c4.17-3.3,6.78-8.35,6.78-14.08,0-10.08-8.17-18.26-18.26-18.26h-27.99v65.55h29.21c10.08,0,18.26-8.17,18.26-18.26s-3.13-11.65-8-14.95m50.77,8h-18.6l9.21-28.51,9.21,28.51h.17Zm15.82,25.21l-21.38-65.55h-7.65l-21.21,65.55h7.65l5.74-17.91h23.3l5.74,17.91h7.82Zm93.36-65.55h-7.65l-17.56,53.9-17.56-53.9h-7.65l-17.56,53.72-17.56-53.72h-7.65l21.38,65.55h7.65l17.56-53.9,17.56,53.9h7.65s21.38-65.55,21.38-65.55Z"
     id="path4" />
  <polygon
     class="cls-1"
     points="441.68 26.53 449.33 26.53 427.95 92.07 420.3 92.07 441.68 26.53"
     id="polygon5" />
  <line
     class="cls-6"
     x1="145.16"
     x2="145.16"
     y2="119.48"
     id="line5" />
  <g
     id="g44">
    <g
       id="g8">
      <rect
         class="cls-5"
         y="91.04"
         width="119.23"
         height="28.44"
         id="rect6" />
      <rect
         class="cls-3"
         width="119.23"
         height="88.27"
         id="rect7" />
      <rect
         class="cls-2"
         y="88.27"
         width="119.23"
         height="2.78"
         id="rect8" />
    </g>
    <g
       id="g37">
      <path
         class="cls-2"
         d="m17.5,25.16h-2.44c-.42,0-.67-.17-.93-.59l-2.52-4.96v4.96c0,.34-.25.59-.59.59h-1.77c-.34,0-.59-.25-.59-.59v-15.15c0-.34.25-.59.59-.59h1.77c.34,0,.59.25.59.59v8.83l2.19-3.7c.17-.34.5-.5.93-.5h2.27c.34,0,.5.42.25.76l-2.86,3.95,3.45,5.72c.17.34,0,.67-.34.67Z"
         id="path8" />
      <path
         class="cls-2"
         d="m22.72,25.16h-1.77c-.34,0-.59-.25-.59-.59v-15.15c0-.34.25-.59.59-.59h1.77c.34,0,.59.25.59.59v15.15c.08.34-.25.59-.59.59Z"
         id="path9" />
      <path
         class="cls-2"
         d="m34.92,25.16h-1.35c-.34,0-.59-.25-.67-.59l-.08-.59c-.84.93-1.94,1.43-3.2,1.43-1.77,0-2.94-1.18-2.94-2.86v-7.83c0-.34.25-.59.59-.59h1.77c.34,0,.59.25.59.59v7.15c0,.59.34,1.01,1.09,1.01,1.01,0,1.85-.93,1.85-2.27v-5.89c0-.34.25-.59.59-.59h1.77c.34,0,.59.25.59.59v9.93c.08.25-.25.5-.59.5Z"
         id="path10" />
      <path
         class="cls-2"
         d="m44.26,25.33c-1.43,0-2.1-.59-2.69-1.43l-.17.59c-.08.34-.42.59-.76.59h-1.18c-.34,0-.59-.25-.59-.59v-15.15c0-.34.25-.59.59-.59h1.77c.34,0,.59.25.59.59v5.55c.5-.59,1.26-1.18,2.52-1.18,1.43,0,3.95.93,3.95,5.64,0,5.13-2.1,5.97-4.04,5.97Zm-.84-9.09c-1.01,0-1.68,1.01-1.68,3.28s.76,3.11,1.68,3.11c1.09,0,1.77-.67,1.77-3.11,0-2.27-.5-3.28-1.77-3.28Z"
         id="path11" />
      <path
         class="cls-2"
         d="m54.52,25.33c-1.18,0-2.44-.34-3.45-.76-.34-.17-.5-.42-.42-.76l.42-1.26c.08-.34.34-.59.76-.42.84.34,1.68.67,2.52.67.76,0,1.01-.34,1.01-.84,0-.67-.76-1.09-1.68-1.51-1.26-.67-2.69-1.35-2.69-3.37,0-1.85,1.26-3.28,3.7-3.28,1.18,0,1.77.08,2.78.5.34.17.59.42.5.76l-.42.93c-.17.34-.42.59-.76.5-.42-.17-1.09-.5-1.85-.5-.67,0-.93.42-.93.84,0,.5.93.93,1.85,1.43,1.18.59,2.52,1.43,2.52,3.53,0,1.68-1.01,3.53-3.87,3.53Z"
         id="path12" />
      <path
         class="cls-2"
         d="m68.32,24.99c-.76.25-1.6.42-2.52.42-3.03,0-4.96-1.85-4.96-5.97,0-3.2,1.77-5.64,5.22-5.64.67,0,1.43.17,2.1.42.42.17.5.5.42.76l-.42,1.18c-.08.25-.34.5-.76.34-.34-.08-.59-.17-1.09-.17-1.51,0-2.36.93-2.36,3.03,0,2.36.67,3.28,2.36,3.28.42,0,1.01-.08,1.43-.17s.59.08.67.42l.25,1.35c.08.34,0,.59-.34.76Z"
         id="path13" />
      <path
         class="cls-2"
         d="m79.68,25.16h-1.77c-.34,0-.59-.25-.59-.59v-7.32c0-.59-.25-1.01-.93-1.01-1.01,0-1.68.93-1.68,2.27v5.97c0,.34-.25.59-.59.59h-1.77c-.34,0-.59-.25-.59-.59v-15.15c0-.34.25-.59.59-.59h1.77c.34,0,.59.25.59.59v5.64c.59-.67,1.6-1.26,2.86-1.26,1.77,0,2.86,1.18,2.86,2.86v7.91c-.17.42-.42.67-.76.67Z"
         id="path14" />
      <path
         class="cls-2"
         d="m91.88,25.16h-1.35c-.34,0-.59-.25-.67-.59l-.17-.67c-.84.93-1.94,1.43-3.2,1.43-1.77,0-2.94-1.18-2.94-2.86v-7.83c0-.34.25-.59.59-.59h1.77c.34,0,.59.25.59.59v7.24c0,.59.34,1.01,1.09,1.01,1.01,0,1.85-.93,1.85-2.27v-5.89c0-.34.25-.59.59-.59h1.77c.34,0,.59.25.59.59v9.93c.08.25-.17.5-.5.5Z"
         id="path15" />
      <path
         class="cls-2"
         d="m98.11,25.16h-1.77c-.34,0-.59-.25-.59-.59v-15.15c0-.34.25-.59.59-.59h1.77c.34,0,.59.25.59.59v15.15c.08.34-.25.59-.59.59Z"
         id="path16" />
      <path
         class="cls-2"
         d="m110.06,20.53h-5.22c.08,1.26.42,2.19,2.36,2.19.93,0,1.51-.17,2.19-.42.42-.17.59.08.67.34l.5,1.35c.08.34-.08.59-.34.67-1.01.5-2.02.67-3.53.67-3.03,0-4.88-1.85-4.88-5.89,0-3.37,1.68-5.81,4.54-5.81,3.03,0,4.46,2.1,4.46,6.14-.17.5-.42.76-.76.76Zm-3.79-4.46c-1.09,0-1.43,1.18-1.43,2.52h2.86c-.08-1.35-.34-2.52-1.43-2.52Z"
         id="path17" />
      <path
         class="cls-2"
         d="m16.58,43.42h-5.22c.08,1.26.42,2.19,2.36,2.19.93,0,1.51-.17,2.19-.42.42-.17.59.08.67.34l.5,1.35c.08.34-.08.59-.34.67-1.01.5-2.02.67-3.53.67-3.03,0-4.88-1.85-4.88-5.89,0-3.37,1.68-5.81,4.54-5.81,3.03,0,4.46,2.1,4.46,6.14-.17.5-.42.76-.76.76Zm-1.43-10.01l-4.04,1.77c-.34.17-.59.17-.76-.17l-.5-.84c-.17-.34-.08-.59.17-.76l3.87-2.36c.25-.17.59-.08.76.17l.76,1.35c.17.42.08.76-.25.84Zm-2.36,5.64c-1.09,0-1.43,1.18-1.43,2.52h2.86c0-1.35-.34-2.52-1.43-2.52Z"
         id="path18" />
      <path
         class="cls-2"
         d="m26.76,47.88c-.76.25-1.6.42-2.52.42-3.03,0-4.96-1.85-4.96-5.97,0-3.2,1.77-5.64,5.22-5.64.67,0,1.43.17,2.1.42.42.17.5.5.42.76l-.42,1.35c-.08.25-.34.5-.76.34-.34-.08-.59-.17-1.09-.17-1.51,0-2.36.93-2.36,3.03,0,2.36.67,3.28,2.36,3.28.42,0,1.01-.08,1.43-.17.42-.08.59.08.67.42l.25,1.35c.17.25.08.42-.34.59Z"
         id="path19" />
      <path
         class="cls-2"
         d="m33.91,48.3c-3.11,0-4.71-2.19-4.71-5.89s1.68-5.72,4.71-5.72,4.71,2.19,4.71,5.72c0,3.62-1.6,5.89-4.71,5.89Zm0-9.09c-.93,0-1.68.59-1.68,3.2s.84,3.28,1.68,3.28,1.68-.59,1.68-3.28-.76-3.2-1.68-3.2Z"
         id="path20" />
      <path
         class="cls-2"
         d="m43.5,48.13h-1.77c-.34,0-.59-.25-.59-.59v-15.15c0-.34.25-.59.59-.59h1.77c.34,0,.59.25.59.59v15.15c0,.34-.25.59-.59.59Z"
         id="path21" />
      <path
         class="cls-2"
         d="m55.03,43.42h-5.22c.08,1.26.42,2.19,2.36,2.19.93,0,1.51-.17,2.19-.42.42-.17.59.08.67.34l.5,1.35c.08.34-.08.59-.34.67-1.01.5-2.02.67-3.53.67-3.03,0-4.88-1.85-4.88-5.89,0-3.37,1.68-5.81,4.54-5.81,3.03,0,4.46,2.1,4.46,6.14-.17.5-.42.76-.76.76Zm-3.79-4.38c-1.09,0-1.43,1.18-1.43,2.52h2.86c-.08-1.35-.34-2.52-1.43-2.52Z"
         id="path22" />
      <path
         class="cls-2"
         d="m64.12,43.42h-5.72c-.34,0-.59-.25-.59-.59v-1.26c0-.34.25-.59.59-.59h5.72c.34,0,.59.25.59.59v1.26c0,.34-.25.59-.59.59Z"
         id="path23" />
      <path
         class="cls-2"
         d="m74.47,47.88c-.76.25-1.6.42-2.52.42-3.03,0-4.96-1.85-4.96-5.97,0-3.2,1.77-5.64,5.22-5.64.67,0,1.43.17,2.1.42.42.17.5.5.42.76l-.42,1.35c-.08.25-.34.5-.76.34-.34-.08-.59-.17-1.09-.17-1.51,0-2.36.93-2.36,3.03,0,2.36.67,3.28,2.36,3.28.42,0,1.01-.08,1.43-.17.42-.08.59.08.67.42l.25,1.35c.08.25,0,.42-.34.59Z"
         id="path24" />
      <path
         class="cls-2"
         d="m79.68,48.13h-1.77c-.34,0-.59-.25-.59-.59v-15.15c0-.34.25-.59.59-.59h1.77c.34,0,.59.25.59.59v15.15c0,.34-.25.59-.59.59Z"
         id="path25" />
      <path
         class="cls-2"
         d="m91.46,48.13h-1.35c-.34,0-.59-.25-.67-.59l-.17-.67c-.84.93-1.94,1.43-3.2,1.43-1.77,0-2.94-1.18-2.94-2.86v-7.83c0-.34.25-.59.59-.59h1.77c.34,0,.59.25.59.59v7.24c0,.59.34,1.01,1.09,1.01,1.01,0,1.85-.93,1.85-2.27v-5.89c0-.34.25-.59.59-.59h1.77c.34,0,.59.25.59.59v9.93c.08.25-.17.5-.5.5Z"
         id="path26" />
      <path
         class="cls-2"
         d="m100.38,48.3c-1.43,0-2.1-.59-2.69-1.43l-.17.59c-.08.34-.42.59-.76.59h-1.18c-.34,0-.59-.25-.59-.59v-15.15c0-.34.25-.59.59-.59h1.77c.34,0,.59.25.59.59v5.55c.5-.59,1.26-1.18,2.52-1.18,1.43,0,3.95.93,3.95,5.64,0,5.13-2.19,5.97-4.04,5.97Zm-.84-9.09c-1.01,0-1.68,1.01-1.68,3.28s.76,3.11,1.68,3.11c1.09,0,1.77-.67,1.77-3.11,0-2.27-.5-3.28-1.77-3.28Z"
         id="path27" />
      <path
         class="cls-2"
         d="m12.03,71.18c-1.18,0-2.44-.34-3.45-.76-.34-.17-.5-.42-.42-.76l.42-1.26c.08-.34.34-.59.76-.42.84.34,1.68.67,2.52.67.76,0,1.01-.34,1.01-.84,0-.67-.76-1.09-1.68-1.51-1.26-.67-2.69-1.35-2.69-3.37,0-1.85,1.26-3.28,3.7-3.28,1.18,0,1.77.08,2.78.5.34.17.59.42.5.76l-.42,1.01c-.17.34-.42.59-.76.5-.5-.17-1.09-.5-1.94-.5-.67,0-.93.42-.93.84,0,.5.93.93,1.85,1.43,1.18.59,2.52,1.43,2.52,3.53.08,1.6-.93,3.45-3.79,3.45Z"
         id="path28" />
      <path
         class="cls-2"
         d="m25.41,70.85c-.76.25-1.6.42-2.52.42-3.03,0-4.96-1.85-4.96-5.97,0-3.2,1.77-5.64,5.22-5.64.67,0,1.43.17,2.1.42.42.17.5.5.42.76l-.42,1.18c-.08.25-.34.5-.76.34-.34-.08-.59-.17-1.09-.17-1.51,0-2.36.93-2.36,3.03,0,2.36.67,3.28,2.36,3.28.42,0,1.01-.08,1.43-.17s.59.08.67.42l.25,1.35c.08.34,0,.59-.34.76Z"
         id="path29" />
      <path
         class="cls-2"
         d="m36.6,71.02h-1.35c-.34,0-.59-.25-.67-.59l-.17-.67c-.84.93-1.94,1.43-3.2,1.43-1.77,0-2.94-1.18-2.94-2.94v-7.83c0-.34.25-.59.59-.59h1.77c.34,0,.59.25.59.59v7.24c0,.59.34,1.01,1.09,1.01,1.01,0,1.85-.93,1.85-2.27v-5.89c0-.34.25-.59.59-.59h1.77c.34,0,.59.25.59.59v9.93c.08.34-.17.59-.5.59Z"
         id="path30" />
      <path
         class="cls-2"
         d="m44.43,71.18c-3.11,0-4.71-2.27-4.71-5.89s1.68-5.72,4.71-5.72,4.71,2.19,4.71,5.72c0,3.7-1.6,5.89-4.71,5.89Zm0-9.09c-.93,0-1.68.59-1.68,3.2s.84,3.28,1.68,3.28,1.68-.59,1.68-3.28-.76-3.2-1.68-3.2Z"
         id="path31" />
      <path
         class="cls-2"
         d="m54.02,71.02h-1.77c-.34,0-.59-.25-.59-.59v-15.15c0-.34.25-.59.59-.59h1.77c.34,0,.59.25.59.59v15.15c0,.34-.25.59-.59.59Z"
         id="path32" />
      <path
         class="cls-2"
         d="m65.55,71.02h-1.51c-.42,0-.59-.25-.67-.67v-.5c-.59.84-1.6,1.35-3.03,1.35-2.1,0-3.2-1.43-3.2-3.62,0-2.02,1.18-3.53,4.04-3.7l1.77-.08c0-1.18-.25-1.68-1.51-1.68-.84,0-1.77.17-2.36.42-.42.17-.67-.08-.76-.34l-.34-1.26c-.08-.42,0-.59.42-.76.76-.25,2.19-.5,3.2-.5,4.29,0,4.46,2.69,4.46,4.71v3.7c0,.5,0,1.18.08,1.77l.08.67c0,.34-.25.5-.67.5Zm-2.69-5.22l-1.01.08c-1.09.08-1.77.59-1.77,1.77,0,.84.59,1.18,1.01,1.18,1.01,0,1.77-.76,1.77-1.51v-1.51Z"
         id="path33" />
      <path
         class="cls-2"
         d="m80.69,70.85c-.76.25-1.6.42-2.52.42-3.03,0-4.96-1.85-4.96-5.97,0-3.2,1.77-5.64,5.22-5.64.67,0,1.43.17,2.1.42.42.17.5.5.42.76l-.42,1.35c-.08.25-.34.5-.76.34-.34-.08-.59-.17-1.09-.17-1.51,0-2.36.93-2.36,3.03,0,2.36.67,3.28,2.36,3.28.42,0,1.01-.08,1.43-.17s.59.08.67.42l.25,1.35c.08.17.08.42-.34.59Z"
         id="path34" />
      <path
         class="cls-2"
         d="m85.91,71.02h-1.77c-.34,0-.59-.25-.59-.59v-15.15c0-.34.25-.59.59-.59h1.77c.34,0,.59.25.59.59v15.15c.08.34-.17.59-.59.59Z"
         id="path35" />
      <path
         class="cls-2"
         d="m97.69,71.02h-1.35c-.34,0-.59-.25-.67-.59l-.17-.67c-.84.93-1.94,1.43-3.2,1.43-1.77,0-2.94-1.18-2.94-2.94v-7.83c0-.34.25-.59.59-.59h1.77c.34,0,.59.25.59.59v7.24c0,.59.34,1.01,1.09,1.01,1.01,0,1.85-.93,1.85-2.27v-5.89c0-.34.25-.59.59-.59h1.77c.34,0,.59.25.59.59v9.93c.17.34-.17.59-.5.59Z"
         id="path36" />
      <path
         class="cls-2"
         d="m106.61,71.18c-1.43,0-2.1-.59-2.69-1.43l-.17.59c-.08.34-.42.59-.76.59h-1.18c-.34,0-.59-.25-.59-.59v-15.15c0-.34.25-.59.59-.59h1.77c.34,0,.59.25.59.59v5.55c.5-.59,1.26-1.18,2.52-1.18,1.43,0,3.95.93,3.95,5.64,0,5.13-2.1,5.97-4.04,5.97Zm-.84-9.09c-1.01,0-1.68,1.01-1.68,3.28s.76,3.11,1.68,3.11c1.09,0,1.77-.67,1.77-3.11,0-2.27-.5-3.28-1.77-3.28Z"
         id="path37" />
    </g>
    <g
       id="g43">
      <path
         class="cls-2"
         d="m56.12,110.9v-6.9l-2.94,6.9h-1.43l-2.94-6.9v6.9h-2.78v-11.36h3.7l2.78,6.56,2.86-6.56h3.53v11.36h-2.78Z"
         id="path38" />
      <path
         class="cls-2"
         d="m61.42,110.9v-11.36h2.36c.25,0,.42.17.42.42v10.85h-2.78v.08Z"
         id="path39" />
      <path
         class="cls-2"
         d="m72.45,104.42h3.62c.34,0,.42.25.42.5v5.81c-1.01.25-2.61.34-3.79.34-4.12,0-6.39-2.1-6.39-5.89,0-3.37,2.19-5.89,5.89-5.89,1.6,0,2.94.42,3.87,1.01l-1.01,1.77c-.84-.42-1.77-.59-2.61-.59-2.19,0-3.2,1.51-3.2,3.62,0,2.27,1.18,3.7,3.37,3.7.42,0,.93,0,1.35-.08v-2.19h-1.51v-2.1Z"
         id="path40" />
      <path
         class="cls-2"
         d="m85.4,110.9l-1.35-3.2c-.25-.67-.5-.93-1.01-.93h-1.35v4.12h-2.69v-10.85c0-.25.25-.42.42-.42h3.87c2.19,0,4.04.42,4.04,3.28,0,1.26-.67,2.52-2.02,2.86.67.25,1.35,1.09,1.68,1.94l1.26,3.28h-2.86v-.08Zm-2.19-9.26h-1.51v2.94h1.51c.84,0,1.6-.5,1.6-1.6,0-1.18-.67-1.35-1.6-1.35Z"
         id="path41" />
      <path
         class="cls-2"
         d="m94.74,111.07c-3.62,0-5.47-2.69-5.47-5.89s2.02-5.89,5.64-5.89,5.39,2.61,5.39,5.81c-.08,3.2-2.19,5.97-5.55,5.97Zm.08-9.51c-1.6,0-2.61,1.18-2.61,3.62s1.09,3.7,2.69,3.7c1.35,0,2.44-1.18,2.44-3.7s-1.09-3.62-2.52-3.62Z"
         id="path42" />
      <path
         class="cls-2"
         d="m106.02,111.07c-1.94,0-3.62-.67-4.46-1.26l1.18-2.1c.76.42,2.19,1.09,3.45,1.09.84,0,1.77-.17,1.77-1.09,0-.84-1.01-1.09-2.36-1.51-1.6-.5-3.53-1.18-3.53-3.2,0-2.27,2.02-3.7,4.71-3.7,1.77,0,3.2.67,3.95,1.35l-1.43,1.6c-.76-.5-1.6-.84-2.52-.84-1.18,0-1.77.42-1.77,1.09s.67.93,1.77,1.35c1.68.59,4.04,1.09,4.04,3.28,0,2.27-1.85,3.95-4.8,3.95Z"
         id="path43" />
    </g>
  </g>
</svg>
