<svg width="347" height="60" viewBox="0 0 347 60" fill="none" xmlns="http://www.w3.org/2000/svg">
<g clip-path="url(#clip0_17376_1296)">
<path d="M60 45.6H0V60H60V45.6Z" fill="#0053A6"/>
<path d="M59.9066 0H0V44.4H60L59.9066 0Z" fill="#0053A6"/>
<path d="M100 44.4H0V45.6H100V44.4Z" fill="white"/>
<path d="M28.2019 55.7022V52.2422L26.7141 55.7026H26.0099L24.5462 52.2422V55.7026H23.1675V50.0105H25.0391L26.4161 53.3137L27.8574 50.0105H29.5794V55.7022H28.2019Z" fill="white"/>
<path d="M30.8567 55.7022V50.0105H32.0224C32.1636 50.0105 32.2422 50.1048 32.2422 50.2375V55.7022H30.8567Z" fill="white"/>
<path d="M36.3979 52.4616H38.2057C38.3553 52.4616 38.4335 52.5782 38.4335 52.7194V55.6236C37.9157 55.7411 37.1422 55.8116 36.5391 55.8116C34.457 55.8116 33.3378 54.7622 33.3378 52.8521C33.3378 51.1453 34.457 49.901 36.28 49.901C37.1029 49.901 37.7758 50.1123 38.2374 50.4255L37.7133 51.3334C37.283 51.1301 36.8126 51.0278 36.3899 51.0278C35.2778 51.0278 34.7782 51.7794 34.7782 52.8517C34.7782 53.9866 35.356 54.7068 36.4681 54.7068C36.6638 54.7068 36.9461 54.6911 37.1427 54.6599V53.5478H36.3979V52.4616Z" fill="white"/>
<path d="M42.9193 55.7022L42.2448 54.0969C42.1053 53.7752 42.0102 53.6189 41.7198 53.6189H41.0478V55.7022H39.7079V50.2375C39.7079 50.1204 39.8178 50.0105 39.9277 50.0105H41.8618C42.9582 50.0105 43.8961 50.2375 43.8961 51.6395C43.8961 52.2735 43.5521 52.8995 42.8872 53.0719C43.2165 53.1818 43.5436 53.6036 43.7241 54.058L44.3738 55.7026H42.9193V55.7022ZM41.7993 51.0676H41.0482V52.5313H41.7993C42.2304 52.5313 42.6057 52.2895 42.6057 51.7485C42.6057 51.1614 42.2689 51.0676 41.7993 51.0676Z" fill="white"/>
<path d="M47.5849 55.8121C45.7606 55.8121 44.8451 54.4494 44.8451 52.8445C44.8451 51.2476 45.8392 49.901 47.6618 49.901C49.4002 49.901 50.3474 51.2083 50.3474 52.8056C50.347 54.4101 49.2912 55.8121 47.5849 55.8121ZM47.6301 51.0287C46.841 51.0287 46.3004 51.6082 46.3004 52.8449C46.3004 54.0893 46.8486 54.6848 47.6542 54.6848C48.3507 54.6848 48.8918 54.0897 48.8918 52.8449C48.8913 51.6082 48.3507 51.0287 47.6301 51.0287Z" fill="white"/>
<path d="M53.2677 55.8121C52.3044 55.8121 51.4358 55.4677 51.0372 55.1933L51.64 54.1202C51.9992 54.34 52.7271 54.6764 53.3776 54.6764C53.7838 54.6764 54.247 54.5902 54.247 54.1438C54.247 53.7127 53.7292 53.5796 53.0492 53.3839C52.2262 53.1497 51.2718 52.7972 51.2718 51.7566C51.2718 50.6052 52.2972 49.9006 53.6362 49.9006C54.5441 49.9006 55.2483 50.2214 55.6084 50.5659L54.8802 51.388C54.4896 51.1526 54.0589 50.973 53.6122 50.973C53.017 50.973 52.7271 51.1923 52.7271 51.5055C52.7271 51.858 53.0563 51.9907 53.6278 52.1793C54.4896 52.4612 55.671 52.7114 55.671 53.8302C55.6706 54.9664 54.7305 55.8121 53.2677 55.8121Z" fill="white"/>
<path d="M8.79115 12.6565H7.56667C7.36843 12.6565 7.21669 12.5631 7.11187 12.3649L5.85231 9.85719V12.3412C5.85231 12.5162 5.7124 12.6561 5.53742 12.6561H4.65107C4.47609 12.6561 4.33618 12.5162 4.33618 12.3412V4.71369C4.33618 4.53871 4.47609 4.3988 4.65107 4.3988H5.53699C5.71198 4.3988 5.85188 4.53871 5.85188 4.71369V9.15767L6.96013 7.30298C7.06495 7.128 7.21627 7.03459 7.41493 7.03459H8.55783C8.74423 7.03459 8.81439 7.23282 8.69774 7.39597L7.23994 9.4024L8.95472 12.2947C9.04771 12.4583 8.97754 12.6565 8.79115 12.6565Z" fill="white"/>
<path d="M11.4269 12.6565H10.5401C10.3655 12.6565 10.2252 12.5166 10.2252 12.3417V4.71369C10.2252 4.53871 10.3655 4.3988 10.5401 4.3988H11.4269C11.6019 4.3988 11.7418 4.53871 11.7418 4.71369V12.3417C11.7418 12.5166 11.6019 12.6565 11.4269 12.6565Z" fill="white"/>
<path d="M17.5498 12.6566H16.8731C16.6867 12.6566 16.5819 12.5399 16.5468 12.3768L16.4652 12.0268C16.0223 12.4934 15.474 12.7386 14.8675 12.7386C13.993 12.7386 13.3746 12.1553 13.3746 11.2804V7.34993C13.3746 7.17494 13.5145 7.03503 13.6895 7.03503H14.5763C14.7513 7.03503 14.8912 7.17536 14.8912 7.34993V10.9773C14.8912 11.2571 15.0662 11.4672 15.428 11.4672C15.9297 11.4672 16.3494 10.9891 16.3494 10.3124V7.34993C16.3494 7.17494 16.4893 7.03503 16.6643 7.03503H17.5506C17.7256 7.03503 17.8655 7.17536 17.8655 7.34993V12.3421C17.8651 12.5167 17.7252 12.6566 17.5498 12.6566Z" fill="white"/>
<path d="M22.227 12.7385C21.5275 12.7385 21.1538 12.4237 20.874 12.0386L20.8043 12.3417C20.7578 12.5281 20.5942 12.6565 20.4192 12.6565H19.8127C19.6377 12.6565 19.4978 12.5166 19.4978 12.3417V4.71369C19.4978 4.53871 19.6377 4.3988 19.8127 4.3988H20.699C20.874 4.3988 21.0139 4.53871 21.0139 4.71369V7.48938C21.2705 7.17449 21.6674 6.89468 22.2735 6.89468C22.973 6.89468 24.2681 7.34948 24.2681 9.74053C24.2681 12.307 23.1949 12.7385 22.227 12.7385ZM21.8073 8.17792C21.3174 8.17792 20.9556 8.66779 20.9556 9.82253C20.9556 10.954 21.3288 11.397 21.8073 11.397C22.3441 11.397 22.6936 11.0588 22.6936 9.82253C22.6932 8.67963 22.4485 8.17792 21.8073 8.17792Z" fill="white"/>
<path d="M27.3705 12.7385C26.764 12.7385 26.1342 12.575 25.6329 12.3771C25.458 12.307 25.3878 12.1671 25.4343 12.0039L25.6443 11.3509C25.7027 11.1759 25.8307 11.0597 26.0176 11.1294C26.4373 11.2807 26.8693 11.4557 27.3004 11.4557C27.674 11.4557 27.8253 11.2807 27.8253 11.036C27.8253 10.686 27.4289 10.4992 26.9622 10.2663C26.3325 9.93959 25.5974 9.60146 25.5974 8.56337C25.5974 7.6187 26.2272 6.89551 27.4521 6.89551C28.0354 6.89551 28.3385 6.942 28.8634 7.15207C29.0266 7.22223 29.1546 7.36214 29.0967 7.52529L28.8981 8.05025C28.8283 8.22523 28.6998 8.34189 28.5371 8.28356C28.3034 8.20199 27.9771 8.05025 27.5802 8.05025C27.2539 8.05025 27.1136 8.24848 27.1136 8.47038C27.1136 8.72695 27.5684 8.92518 28.0582 9.18174C28.6648 9.49663 29.341 9.8931 29.341 10.9544C29.3415 11.8053 28.8283 12.7385 27.3705 12.7385Z" fill="white"/>
<path d="M34.31 12.5399C33.9368 12.6798 33.4934 12.7381 33.0619 12.7381C31.5339 12.7381 30.5664 11.8285 30.5664 9.7405C30.5664 8.15422 31.4405 6.89465 33.1794 6.89465C33.5285 6.89465 33.9017 6.96482 34.2284 7.09289C34.4381 7.17446 34.4736 7.3262 34.4381 7.45427L34.2284 8.11913C34.1824 8.25904 34.0767 8.36428 33.8552 8.30553C33.6916 8.25904 33.5522 8.20071 33.2956 8.20071C32.5492 8.20071 32.129 8.67875 32.129 9.7405C32.129 10.9067 32.4558 11.3965 33.3184 11.3965C33.5281 11.3965 33.8206 11.3733 34.0416 11.3031C34.2399 11.2448 34.3328 11.3382 34.3683 11.5014L34.4964 12.1895C34.5315 12.3535 34.4968 12.4701 34.31 12.5399Z" fill="white"/>
<path d="M40.0136 12.6565H39.1268C38.9518 12.6565 38.8123 12.5166 38.8123 12.3417V8.65596C38.8123 8.37573 38.6953 8.16608 38.3334 8.16608C37.8322 8.16608 37.4708 8.62088 37.4708 9.32082V12.3417C37.4708 12.5166 37.3304 12.6565 37.1555 12.6565H36.2695C36.0945 12.6565 35.9542 12.5166 35.9542 12.3417V4.71369C35.9542 4.53871 36.0945 4.3988 36.2695 4.3988H37.1555C37.3304 4.3988 37.4708 4.53871 37.4708 4.71369V7.52446C37.7852 7.18633 38.2874 6.89468 38.8931 6.89468C39.768 6.89468 40.328 7.47797 40.328 8.35248V12.3417C40.3285 12.5166 40.189 12.6565 40.0136 12.6565Z" fill="white"/>
<path d="M46.1368 12.6566H45.4605C45.2742 12.6566 45.1685 12.5399 45.1338 12.3768L45.0522 12.0268C44.6089 12.4934 44.0607 12.7386 43.455 12.7386C42.58 12.7386 41.9617 12.1553 41.9617 11.2804V7.34993C41.9617 7.17494 42.102 7.03503 42.277 7.03503H43.1629C43.3379 7.03503 43.4782 7.17536 43.4782 7.34993V10.9773C43.4782 11.2571 43.6532 11.4672 44.015 11.4672C44.5163 11.4672 44.9364 10.9891 44.9364 10.3124V7.34993C44.9364 7.17494 45.0759 7.03503 45.2509 7.03503H46.1377C46.3127 7.03503 46.453 7.17536 46.453 7.34993V12.3421C46.4521 12.5167 46.3118 12.6566 46.1368 12.6566Z" fill="white"/>
<path d="M49.2861 12.6565H48.3993C48.2243 12.6565 48.084 12.5166 48.084 12.3417V4.71369C48.084 4.53871 48.2243 4.3988 48.3993 4.3988H49.2861C49.4611 4.3988 49.6005 4.53871 49.6005 4.71369V12.3417C49.6005 12.5166 49.4611 12.6565 49.2861 12.6565Z" fill="white"/>
<path d="M55.2804 10.3124H52.6561C52.7148 10.9303 52.8665 11.4206 53.8226 11.4206C54.2774 11.4206 54.6046 11.3154 54.919 11.1992C55.1181 11.129 55.1989 11.2342 55.2458 11.3856L55.4795 12.0623C55.5374 12.2372 55.4326 12.3539 55.2931 12.4122C54.7681 12.6455 54.2779 12.739 53.52 12.739C52.0149 12.739 51.0592 11.7943 51.0592 9.79969C51.0592 8.10858 51.9105 6.89551 53.345 6.89551C54.8848 6.89551 55.5962 7.945 55.5962 9.99792C55.5957 10.1725 55.4554 10.3124 55.2804 10.3124ZM53.3793 8.08449C52.831 8.08449 52.6802 8.65594 52.6446 9.34405H54.0796C54.0792 8.67961 53.927 8.08449 53.3793 8.08449Z" fill="white"/>
</g>
<rect x="72" width="1" height="60" fill="#D6D6D6"/>
<g clip-path="url(#clip1_17376_1296)">
<path d="M86.0462 43.8496C86.953 43.8496 87.3017 43.9183 87.6853 44.1242C88.3479 44.4674 88.7315 45.2569 88.7315 46.1493C88.7315 47.076 88.313 47.8655 87.6156 48.2087C87.232 48.4146 86.9181 48.4489 85.9416 48.4489H85.2441V43.8496H86.0462ZM86.1857 48.0027C86.9181 48.0027 87.1273 47.9684 87.4761 47.7625C87.9294 47.4879 88.2084 46.9044 88.2084 46.1493C88.2084 45.3598 87.9294 44.7763 87.3715 44.5018C87.0576 44.3301 86.8832 44.3301 86.0462 44.3301H85.837V48.0371H86.1857V48.0027Z" fill="black"/>
<path d="M92.2538 45.8404V46.2866H90.3706V48.0027H92.4631V48.4489H89.8475V43.8496H92.4282V44.2958H90.3706V45.8404H92.2538Z" fill="black"/>
<path d="M93.4395 48.4489V43.8496H93.9626V48.4489H93.4395Z" fill="black"/>
<path d="M95.8458 43.8496L98.0778 47.6595V43.8496H98.6009V48.4489H98.008L95.7761 44.639V48.4489H95.2878V43.8496H95.8458Z" fill="black"/>
<path d="M102.367 45.8404V46.2866H100.484V48.0027H102.576V48.4489H99.9609V43.8496H102.542V44.2958H100.484V45.8404H102.367Z" fill="black"/>
<path d="M106.413 43.8495C107.04 43.8495 107.285 43.8838 107.563 43.9525C108.017 44.0898 108.296 44.4673 108.296 44.9822C108.296 45.497 108.052 45.8403 107.529 45.9776C108.226 46.1492 108.54 46.5267 108.54 47.1446C108.54 47.6937 108.226 48.1743 107.738 48.3116C107.424 48.4145 107.18 48.4145 106.378 48.4145H105.576V43.8152H106.413V43.8495ZM106.517 45.8059C106.971 45.8059 107.215 45.7716 107.389 45.6687C107.598 45.5657 107.738 45.2911 107.738 45.0165C107.738 44.7076 107.598 44.4673 107.319 44.3644C107.145 44.2957 106.971 44.2957 106.482 44.2957H106.064V45.8403H106.517V45.8059ZM106.552 48.0026C107.11 48.0026 107.354 47.9683 107.563 47.8997C107.808 47.7967 107.982 47.5221 107.982 47.1446C107.982 46.767 107.773 46.4581 107.459 46.3551C107.25 46.2865 107.075 46.2865 106.552 46.2865H106.099V48.037H106.552V48.0026Z" fill="black"/>
<path d="M111.992 45.8404V46.2866H110.109V48.0027H112.202V48.4489H109.586V43.8496H112.167V44.2958H110.109V45.8404H111.992Z" fill="black"/>
<path d="M114.015 43.8496C114.747 43.8496 114.992 43.8839 115.305 43.9869C115.759 44.1585 116.073 44.6047 116.073 45.1539C116.073 45.7717 115.759 46.1836 115.096 46.3895L116.317 48.4489H115.689L114.503 46.4925H113.701V48.4489H113.178V43.8496H114.015ZM114.015 46.012C114.573 46.012 114.747 46.012 114.957 45.909C115.305 45.806 115.48 45.4971 115.48 45.1196C115.48 44.7763 115.305 44.5018 115.026 44.3988C114.817 44.2958 114.643 44.2958 113.98 44.2958H113.666V46.0463H114.015V46.012Z" fill="black"/>
<path d="M117.677 43.8496V46.5612C117.677 47.2476 117.712 47.4192 117.816 47.6252C117.991 47.8998 118.34 48.0714 118.793 48.0714C119.281 48.0714 119.665 47.8655 119.804 47.5222C119.874 47.3506 119.909 47.1447 119.909 46.5612V43.8496H120.432V46.5612C120.432 47.282 120.432 47.4192 120.327 47.6595C120.118 48.2087 119.525 48.5176 118.793 48.5176C118.026 48.5176 117.468 48.2087 117.258 47.6595C117.154 47.4192 117.154 47.282 117.154 46.5612V43.8496H117.677Z" fill="black"/>
<path d="M124.164 45.8404V46.2866H122.28V48.4489H121.757V43.8496H124.338V44.2958H122.28V45.8404H124.164Z" fill="black"/>
<path d="M125.802 43.8496V48.0027H127.79V48.4489H125.245V43.8496H125.802Z" fill="black"/>
<path d="M128.697 48.4489V43.8496H129.22V48.4489H128.697Z" fill="black"/>
<path d="M133.335 45.1195C133.196 44.5017 132.847 44.2271 132.254 44.2271C131.417 44.2271 130.894 44.9822 130.894 46.1492C130.894 47.3505 131.417 48.0713 132.254 48.0713C132.917 48.0713 133.3 47.6595 133.37 46.87H133.858C133.789 47.934 133.196 48.5175 132.254 48.5175C131.068 48.5175 130.301 47.5908 130.301 46.1492C130.301 44.7076 131.068 43.7466 132.219 43.7466C133.091 43.7466 133.649 44.2271 133.754 45.1195H133.335Z" fill="black"/>
<path d="M137.66 45.8059V43.8152H138.183V48.4145H137.66V46.2178H135.463V48.4145H134.939V43.8152H135.463V45.8059H137.66Z" fill="black"/>
<path d="M141.949 45.8404V46.2866H140.066V48.0027H142.158V48.4489H139.543V43.8496H142.124V44.2958H140.066V45.8404H141.949Z" fill="black"/>
<path d="M87.0576 51.2977L88.6618 55.9314H88.1387L87.7202 54.6957H85.9765L85.558 55.9314H85L86.6042 51.2977H87.0576ZM86.8483 51.9499L86.116 54.2495H87.5807L86.8483 51.9499Z" fill="black"/>
<path d="M89.9173 51.2977V54.0093C89.9173 54.6957 89.9521 54.8674 90.0568 55.0733C90.2311 55.3479 90.5799 55.5195 91.0332 55.5195C91.5215 55.5195 91.9051 55.3136 92.0446 54.9703C92.1143 54.7987 92.1492 54.5928 92.1492 54.0093V51.2977H92.6723V54.0093C92.6723 54.7301 92.6723 54.8674 92.5677 55.1076C92.3585 55.6568 91.7656 55.9657 91.0332 55.9657C90.266 55.9657 89.708 55.6568 89.4988 55.1076C89.3942 54.8674 89.3942 54.7301 89.3942 54.0093V51.2977H89.9173Z" fill="black"/>
<path d="M96.1247 52.4991C96.0899 51.9842 95.7411 51.6753 95.218 51.6753C94.7298 51.6753 94.3462 51.9842 94.3462 52.3618C94.3462 52.5677 94.4508 52.7394 94.6252 52.8423C94.7646 52.9453 94.7646 52.9453 95.4621 53.2542C96.055 53.5288 96.2991 53.6661 96.4735 53.872C96.6478 54.078 96.7525 54.3526 96.7525 54.6615C96.7525 55.4509 96.1247 55.9658 95.218 55.9658C94.66 55.9658 94.2067 55.7941 93.9625 55.4509C93.7533 55.2106 93.6836 54.9361 93.6487 54.4899H94.1718C94.2067 55.142 94.5903 55.5196 95.2529 55.5196C95.8109 55.5196 96.2294 55.1763 96.2294 54.7301C96.2294 54.4899 96.1247 54.3182 95.9504 54.1809C95.8109 54.0436 95.6714 54.0093 95.218 53.8034C94.7298 53.5974 94.4159 53.4258 94.2764 53.2885C93.9974 53.0826 93.8579 52.7737 93.8579 52.4304C93.8579 51.744 94.4508 51.2291 95.2529 51.2291C95.7411 51.2291 96.1596 51.4007 96.4037 51.744C96.5432 51.9499 96.613 52.1559 96.6478 52.4991H96.1247Z" fill="black"/>
<path d="M99.5075 53.3915V53.769H97.5895V53.3915H99.5075Z" fill="black"/>
<path d="M102.681 51.2977V54.0093C102.681 54.6957 102.716 54.8674 102.821 55.0733C102.995 55.3479 103.344 55.5195 103.797 55.5195C104.285 55.5195 104.669 55.3136 104.808 54.9703C104.878 54.7987 104.913 54.5928 104.913 54.0093V51.2977H105.436V54.0093C105.436 54.7301 105.436 54.8674 105.331 55.1076C105.122 55.6568 104.529 55.9657 103.797 55.9657C103.03 55.9657 102.472 55.6568 102.263 55.1076C102.158 54.8674 102.158 54.7301 102.158 54.0093V51.2977H102.681Z" fill="black"/>
<path d="M107.319 51.2977L109.551 55.1076V51.2977H110.039V55.8971H109.447L107.215 52.0872V55.8971H106.726V51.2977H107.319Z" fill="black"/>
<path d="M112.132 51.2977C113.039 51.2977 113.387 51.3664 113.771 51.5723C114.434 51.9156 114.817 52.705 114.817 53.5974C114.817 54.5241 114.399 55.3136 113.701 55.6568C113.318 55.8627 113.004 55.8971 112.062 55.8971H111.365V51.2977H112.132ZM112.271 55.4509C113.004 55.4509 113.213 55.4165 113.562 55.2106C114.015 54.936 114.294 54.3525 114.294 53.5974C114.294 52.808 114.015 52.2245 113.457 51.9499C113.143 51.7783 112.969 51.7783 112.132 51.7783H111.923V55.4852H112.271V55.4509Z" fill="black"/>
<path d="M117.921 51.2977L118.828 55.2106L119.804 51.2977H120.258L121.234 55.2106L122.141 51.2977H122.629L121.513 55.9314H120.955L120.013 52.3274L119.107 55.9314H118.549L117.433 51.2977H117.921Z" fill="black"/>
<path d="M125.942 53.2885V53.7347H124.059V55.4509H126.151V55.8971H123.536V51.2977H126.116V51.7439H124.059V53.2885H125.942Z" fill="black"/>
<path d="M127.093 55.8971V51.2977H127.616V55.8971H127.093Z" fill="black"/>
<path d="M131.487 51.2977V51.7439H130.266V55.8971H129.743V51.7439H128.523V51.2977H131.487Z" fill="black"/>
<path d="M134.8 53.2885V53.7347H132.917V55.4509H135.009V55.8971H132.394V51.2977H134.974V51.7439H132.917V53.2885H134.8Z" fill="black"/>
<path d="M136.788 51.2977C137.52 51.2977 137.764 51.3321 138.078 51.435C138.531 51.6066 138.845 52.0528 138.845 52.602C138.845 53.2198 138.531 53.6317 137.869 53.8377L139.089 55.8971H138.462L137.276 53.9406H136.474V55.8971H135.951V51.2977H136.788ZM136.823 53.4944C137.381 53.4944 137.555 53.4944 137.764 53.3915C138.113 53.2885 138.287 52.9796 138.287 52.602C138.287 52.2588 138.113 51.9842 137.834 51.8812C137.625 51.7783 137.45 51.7783 136.788 51.7783H136.474V53.5288H136.823V53.4944Z" fill="black"/>
<path d="M140.868 51.2978C141.496 51.2978 141.74 51.3321 142.019 51.4007C142.472 51.538 142.751 51.9156 142.751 52.4304C142.751 52.9453 142.507 53.2885 141.984 53.4258C142.682 53.5974 142.995 53.975 142.995 54.5928C142.995 55.142 142.682 55.6225 142.193 55.7598C141.879 55.8628 141.635 55.8628 140.833 55.8628H140.031V51.2634H140.868V51.2978ZM140.973 53.2885C141.426 53.2885 141.67 53.2542 141.845 53.1512C142.054 53.0482 142.193 52.7737 142.193 52.4991C142.193 52.1902 142.054 51.9499 141.775 51.8469C141.6 51.7783 141.426 51.7783 140.938 51.7783H140.519V53.3228H140.973V53.2885ZM141.008 55.4852C141.566 55.4852 141.81 55.4509 142.019 55.3822C142.263 55.2793 142.437 55.0047 142.437 54.6271C142.437 54.2496 142.228 53.9407 141.914 53.8377C141.705 53.769 141.531 53.769 141.008 53.769H140.554V55.5195H141.008V55.4852Z" fill="black"/>
<path d="M144.042 55.8971V51.2977H144.565V55.8971H144.042Z" fill="black"/>
<path d="M146.448 51.2977V55.4509H148.436V55.8971H145.89V51.2977H146.448Z" fill="black"/>
<path d="M150.075 51.2977C150.982 51.2977 151.33 51.3664 151.714 51.5723C152.377 51.9156 152.76 52.705 152.76 53.5974C152.76 54.5241 152.342 55.3136 151.644 55.6568C151.261 55.8627 150.947 55.8971 150.005 55.8971H149.308V51.2977H150.075ZM150.214 55.4509C150.947 55.4509 151.156 55.4165 151.505 55.2106C151.958 54.936 152.237 54.3525 152.237 53.5974C152.237 52.808 151.958 52.2245 151.4 51.9499C151.086 51.7783 150.912 51.7783 150.075 51.7783H149.866V55.4852H150.214V55.4509Z" fill="black"/>
<path d="M154.329 51.2977V54.0093C154.329 54.6957 154.364 54.8674 154.469 55.0733C154.643 55.3479 154.992 55.5195 155.445 55.5195C155.934 55.5195 156.317 55.3136 156.457 54.9703C156.526 54.7987 156.561 54.5928 156.561 54.0093V51.2977H157.084V54.0093C157.084 54.7301 157.084 54.8674 156.98 55.1076C156.771 55.6568 156.178 55.9657 155.445 55.9657C154.678 55.9657 154.12 55.6568 153.911 55.1076C153.806 54.8674 153.806 54.7301 153.806 54.0093V51.2977H154.329Z" fill="black"/>
<path d="M159.003 51.2977L161.234 55.1076V51.2977H161.723V55.8971H161.13L158.898 52.0872V55.8971H158.41V51.2977H159.003Z" fill="black"/>
<path d="M166.396 53.6318V55.5196C165.942 55.8285 165.419 56.0001 164.861 56.0001C163.606 56.0001 162.839 55.1077 162.839 53.5974C162.839 52.1559 163.606 51.2291 164.792 51.2291C165.663 51.2291 166.221 51.7097 166.326 52.5677H165.838C165.698 51.9499 165.35 51.6753 164.792 51.6753C163.92 51.6753 163.397 52.3961 163.397 53.5974C163.397 54.8331 163.92 55.5196 164.861 55.5196C165.21 55.5196 165.594 55.4166 165.908 55.2106V54.0436H164.966V53.5974H166.396V53.6318Z" fill="black"/>
<path d="M85.3138 37.534V4.00001H96.8222C100.449 3.96569 103.169 4.44622 104.983 5.26998C108.645 6.95183 110.946 10.7961 110.946 15.3267C110.946 21.5393 107.459 27.031 97.6941 27.031H93.6487V37.534H85.3138ZM97.3802 19.5142C100.868 19.5142 102.611 18.3472 102.611 15.4984C102.611 12.7868 100.902 11.5512 97.0315 11.5512H93.6138V19.5142H97.3802Z" fill="black"/>
<path d="M144.809 38.3921C137.032 38.3921 131.034 32.7287 131.034 25.0403C131.034 17.2489 137.171 11.6885 144.809 11.6885C152.481 11.6885 158.584 17.3518 158.584 24.9716C158.549 32.7974 152.481 38.3921 144.809 38.3921ZM150.912 25.006C150.912 21.6423 148.331 18.6561 144.739 18.6561C141.391 18.6561 138.671 21.5393 138.671 25.006C138.671 28.4726 141.356 31.3558 144.809 31.3558C148.366 31.3558 150.912 28.3697 150.912 25.006Z" fill="black"/>
<path d="M164.094 38.3577C166.232 38.3577 167.965 36.652 167.965 34.5478C167.965 32.4437 166.232 30.7379 164.094 30.7379C161.956 30.7379 160.223 32.4437 160.223 34.5478C160.223 36.652 161.956 38.3577 164.094 38.3577Z" fill="black"/>
<path d="M128.976 12.5122C126.151 12.5122 123.815 14.1254 120.711 18.1069L122.036 13.0957H116.073L109.795 37.5683H116.038L118.653 27.237C120.118 21.4363 122.803 18.1413 126.047 18.1413C127.198 18.1413 128.244 18.5531 129.813 19.6515L131.487 13.0271C130.406 12.6152 129.778 12.5122 128.976 12.5122Z" fill="black"/>
</g>
<rect x="180" width="1" height="60" fill="#D6D6D6"/>
<g clip-path="url(#clip2_17376_1296)">
<path d="M304.801 6.23462H308.122L298.837 35.9388H295.516L304.801 6.23462Z" fill="#00A2AD"/>
<path d="M346.698 53.2922V52.1197H346.17C345.641 52.1197 345.49 51.8852 345.49 51.338V47.6641H346.773V46.5697H345.49V44.5373H344.207V46.5697H343.452V47.6641H344.207V51.4162C344.207 51.9634 344.358 52.4324 344.735 52.7451C345.113 53.1359 345.566 53.2922 346.019 53.2922H346.698ZM342.018 53.2922V48.9148C342.093 48.2894 341.867 47.5859 341.414 47.1169C340.961 46.6479 340.357 46.4134 339.677 46.4134C338.998 46.4134 338.394 46.6479 337.941 47.1951V43.7556H336.658V53.2922H337.941V49.0711C337.866 48.6803 338.017 48.2894 338.319 47.9767C338.545 47.7422 338.923 47.5077 339.375 47.5077C339.753 47.5077 340.13 47.6641 340.432 47.9767C340.659 48.2113 340.81 48.6803 340.81 49.0711V53.2922H342.018ZM335.299 52.5105L334.469 51.6507C334.242 52.1197 333.714 52.276 333.185 52.276C332.657 52.276 332.204 52.1197 331.977 51.6507C331.6 51.1035 331.524 50.5563 331.6 49.931C331.524 49.3838 331.675 48.7584 331.977 48.2894C332.204 47.8986 332.732 47.6641 333.185 47.6641C333.714 47.6641 334.167 47.8986 334.469 48.2894L335.299 47.4296C334.771 46.8042 334.016 46.4134 333.185 46.4134C331.751 46.4134 330.241 47.2732 330.241 49.8528C330.241 52.4324 331.675 53.2922 333.185 53.2922C333.94 53.4486 334.771 53.0577 335.299 52.5105ZM327.297 50.869C327.297 51.2598 327.222 51.5725 327.071 51.8852C326.693 52.1197 326.316 52.3542 325.863 52.276C325.032 52.276 324.655 51.8852 324.655 51.2598C324.655 50.6345 325.108 50.2436 325.863 50.2436H327.448L327.297 50.869ZM328.58 53.2922V48.7584C328.58 47.1169 327.75 46.3352 325.938 46.3352C325.108 46.257 324.126 46.5697 323.598 47.3514L324.428 48.1331C324.806 47.6641 325.259 47.4296 325.863 47.5077C326.92 47.5077 327.297 47.9767 327.297 48.7584V49.2274H325.561C323.975 49.2274 323.296 50.0091 323.296 51.1817C323.296 51.7289 323.447 52.276 323.824 52.5887C324.353 53.0577 324.957 53.2922 325.561 53.2141C326.24 53.2922 326.92 53.0577 327.373 52.5105V53.1359L328.58 53.2922ZM321.786 53.2922V48.9929C321.786 48.2894 321.635 47.5859 321.107 47.1169C320.654 46.6479 320.05 46.4915 319.446 46.4915C318.691 46.4915 317.861 46.8824 317.408 47.5077C316.955 46.8824 316.275 46.4134 315.521 46.4915C314.841 46.4915 314.237 46.726 313.784 47.2732V46.5697H312.501V53.3704H313.784V49.1493C313.709 48.6803 313.86 48.3676 314.162 48.0549C314.388 47.8204 314.841 47.5859 315.219 47.5859C315.596 47.5859 315.974 47.7422 316.275 48.0549C316.577 48.3676 316.653 48.7584 316.653 49.1493V53.2141H317.936V48.9929C317.936 48.6021 318.012 48.2112 318.314 47.8986C318.54 47.6641 318.918 47.4296 319.371 47.4296C320.125 47.4296 320.654 47.8986 320.654 48.9148V52.9796L321.786 53.2922ZM306.386 49.3838H303.442C303.442 48.9929 303.518 48.7584 303.593 48.5239C303.82 47.9767 304.348 47.6641 304.876 47.6641C305.48 47.6641 305.933 48.0549 306.16 48.5239C306.311 48.7584 306.386 49.0711 306.386 49.3838ZM307.745 50.3218V49.6965C307.745 47.7422 306.688 46.4134 305.027 46.4134C303.367 46.4134 302.31 47.6641 302.31 49.8528C302.31 52.4324 303.593 53.2922 305.254 53.2922C306.235 53.3704 307.066 52.9014 307.67 52.1979L306.839 51.4162C306.386 51.8852 305.858 52.1197 305.254 52.1197C304.725 52.1197 304.273 51.9634 303.971 51.5725C303.669 51.1817 303.518 50.7127 303.518 50.2436L307.745 50.3218ZM301.479 47.0387C301.026 46.5697 300.498 46.3352 299.894 46.4134C299.215 46.4134 298.611 46.6479 298.158 47.1951V46.4915H296.874V53.2922H298.158V49.2274C298.158 48.8366 298.233 48.4458 298.535 48.1331C298.762 47.8986 299.139 47.6641 299.517 47.6641C299.894 47.6641 300.272 47.8204 300.498 48.1331L301.479 47.0387ZM293.93 49.3838H290.986C290.986 48.9929 291.062 48.7584 291.137 48.5239C291.364 47.9767 291.892 47.6641 292.496 47.7422C293.1 47.7422 293.553 48.1331 293.779 48.6021C293.93 48.7584 293.93 49.0711 293.93 49.3838ZM295.214 50.3218V49.6965C295.214 47.7422 294.157 46.4134 292.496 46.4134C290.76 46.4134 289.778 47.6641 289.778 49.8528C289.778 52.4324 291.062 53.2922 292.723 53.2922C293.704 53.3704 294.534 52.9014 295.138 52.1979L294.308 51.4162C293.855 51.8852 293.326 52.1197 292.723 52.1197C292.194 52.1197 291.741 51.9634 291.439 51.5725C291.062 51.1817 290.911 50.7127 290.986 50.1655H295.289L295.214 50.3218ZM288.118 43.7556H286.759V45.1627H288.118V43.7556ZM288.118 46.4915H286.759V53.2922H288.042L288.118 46.4915ZM285.551 47.0387C285.098 46.5697 284.57 46.3352 283.966 46.4134C283.286 46.4134 282.682 46.6479 282.229 47.1951V46.4915H280.946V53.2922H282.229V49.2274C282.229 48.8366 282.305 48.4458 282.607 48.1331C282.909 47.8204 283.211 47.6641 283.588 47.6641C283.966 47.6641 284.343 47.8204 284.57 48.1331L285.551 47.0387ZM279.663 47.0387C279.21 46.5697 278.606 46.3352 278.002 46.4134C277.323 46.4134 276.719 46.6479 276.266 47.1951V46.4915H274.982V53.2922H276.266V49.2274C276.266 48.8366 276.341 48.4458 276.643 48.1331C276.945 47.8204 277.247 47.6641 277.624 47.6641C278.002 47.6641 278.379 47.8204 278.606 48.1331L279.663 47.0387ZM271.812 50.869C271.812 51.2598 271.736 51.5725 271.585 51.8852C271.208 52.1197 270.83 52.3542 270.377 52.276C269.547 52.276 269.17 51.8852 269.17 51.2598C269.17 50.6345 269.623 50.2436 270.377 50.2436H271.963L271.812 50.869ZM273.095 53.2922V48.7584C273.095 47.1169 272.265 46.3352 270.453 46.3352C269.623 46.257 268.641 46.5697 268.113 47.3514L268.943 48.1331C269.321 47.6641 269.773 47.4296 270.377 47.5077C271.434 47.5077 271.812 47.9767 271.812 48.7584V49.2274H270.075C268.49 49.2274 267.811 50.0091 267.811 51.1817C267.811 51.7289 267.962 52.276 268.339 52.5887C268.868 53.0577 269.472 53.2922 270.075 53.2141C270.755 53.2922 271.359 53.0577 271.812 52.5105V53.1359L273.095 53.2922ZM267.131 53.2922L263.885 47.5077L266.829 43.7556H265.093L261.319 48.6021V43.7556H259.96V53.2922H261.319V50.5563L262.904 48.6021L265.471 53.2922H267.131ZM254.6 53.2922V48.9929C254.675 48.2894 254.449 47.5859 253.921 47.1169C253.468 46.6479 252.864 46.4915 252.26 46.4915C251.58 46.4915 250.976 46.726 250.523 47.2732V46.5697H249.24V53.3704H250.523V49.1493C250.448 48.7584 250.599 48.3676 250.901 48.0549C251.127 47.8204 251.505 47.5859 251.958 47.5859C252.713 47.5859 253.241 48.0549 253.241 49.0711V53.1359H254.6V53.2922ZM246.296 49.3838H243.352C243.352 48.9929 243.427 48.7584 243.503 48.5239C243.729 47.9767 244.258 47.6641 244.786 47.6641C245.315 47.6641 245.843 48.0549 246.07 48.5239C246.296 48.7584 246.372 49.0711 246.296 49.3838ZM247.655 50.3218V49.6965C247.655 47.7422 246.598 46.4134 244.937 46.4134C243.201 46.4134 242.22 47.6641 242.22 49.8528C242.22 52.4324 243.503 53.2922 245.164 53.2922C246.145 53.3704 246.975 52.9014 247.579 52.1979L246.749 51.4162C246.296 51.8852 245.768 52.1197 245.164 52.1197C244.635 52.1197 244.182 51.9634 243.88 51.5725C243.578 51.1817 243.427 50.7127 243.427 50.2436L247.655 50.3218ZM240.559 53.2922V48.9929C240.634 48.2894 240.408 47.5859 239.879 47.1169C239.426 46.6479 238.823 46.4915 238.219 46.4915C237.539 46.4915 236.935 46.726 236.482 47.2732V46.5697H235.199V53.3704H236.482V49.1493C236.407 48.7584 236.558 48.3676 236.86 48.0549C237.086 47.8204 237.464 47.5859 237.917 47.5859C238.294 47.5859 238.672 47.7422 238.974 48.0549C239.2 48.2894 239.351 48.7584 239.351 49.1493V53.2141H240.559V53.2922ZM233.991 47.0387C233.538 46.5697 233.01 46.3352 232.406 46.4134C231.726 46.4134 231.123 46.6479 230.67 47.1951V46.4915H229.311V53.2922H230.594V49.2274C230.594 48.8366 230.67 48.4458 230.972 48.1331C231.198 47.8986 231.575 47.6641 231.953 47.6641C232.33 47.6641 232.708 47.8204 232.934 48.1331L233.991 47.0387ZM226.367 49.3838H223.423C223.423 48.9929 223.498 48.7584 223.574 48.5239C223.8 47.9767 224.328 47.6641 224.857 47.6641C225.385 47.6641 225.914 48.0549 226.14 48.5239C226.367 48.7584 226.442 48.9929 226.367 49.3838ZM227.725 50.3218V49.6965C227.725 47.7422 226.669 46.4134 225.008 46.4134C223.347 46.4134 222.29 47.6641 222.29 49.8528C222.29 52.4324 223.574 53.2922 225.234 53.2922C226.216 53.3704 227.046 52.9014 227.65 52.1979L226.82 51.4162C226.367 51.8852 225.838 52.1197 225.234 52.1197C224.706 52.1197 224.253 51.9634 223.951 51.5725C223.649 51.1817 223.498 50.7127 223.498 50.2436L227.725 50.3218ZM221.007 53.2922V52.0415H216.628V43.8338H215.27V53.3704L221.007 53.2922ZM208.853 49.8528C208.928 50.4781 208.777 51.1817 208.4 51.7289C208.174 51.9634 207.796 52.1979 207.419 52.1979C207.041 52.1979 206.739 52.0415 206.437 51.7289C205.984 51.1817 205.909 50.5563 205.984 49.8528C205.909 49.2274 206.06 48.5239 206.437 47.9767C206.664 47.7422 207.041 47.5859 207.419 47.5859C207.796 47.5859 208.098 47.6641 208.4 47.9767C208.777 48.5239 208.928 49.2274 208.853 49.8528ZM210.212 49.8528C210.287 48.8366 210.061 47.8986 209.457 47.1951C208.928 46.6479 208.249 46.4134 207.494 46.4134C206.815 46.4134 206.06 46.6479 205.531 47.1951C204.927 47.8986 204.701 48.9148 204.776 49.8528C204.701 50.869 204.927 51.807 205.531 52.5105C206.06 53.0577 206.739 53.2922 207.494 53.2922C208.174 53.2922 208.928 53.0577 209.457 52.5105C210.061 51.8852 210.363 50.869 210.212 49.8528ZM204.097 43.7556H202.663L201.002 50.5563L199.19 43.912H198.133L196.322 50.7127L194.661 43.912H193.226L195.642 53.4486H196.85L198.737 46.6479L200.624 53.2922H201.832L204.097 43.7556Z" fill="black"/>
<path d="M193.226 35.9388H196.397V6.23462H193.226V35.9388ZM221.837 27.7311C221.837 30.467 219.723 32.7339 217.081 32.7339H207.645V22.8064H217.157C219.723 22.8064 221.837 24.917 221.837 27.7311ZM221.309 14.5205C221.309 17.2564 219.195 19.4452 216.553 19.4452H207.494V9.51772H216.477C219.195 9.51772 221.309 11.7846 221.309 14.5205ZM221.611 20.8522C224.177 18.6635 225.234 14.9895 224.102 11.7064C222.97 8.42335 219.95 6.23462 216.628 6.23462H204.399V35.8607H217.157C220.705 35.8607 223.724 33.5156 224.706 30.0762C225.763 26.6367 224.404 22.8846 221.611 20.8522ZM243.729 24.5262H235.652L239.728 11.6283L243.729 24.5262ZM250.674 35.9388L241.389 6.23462H238.068L228.707 35.9388H232.028L234.595 27.8093H244.711L247.277 35.9388H250.674ZM291.364 6.23462H288.042L280.418 30.6234L272.869 6.23462H269.547L261.772 30.5452L254.223 6.23462H250.901L260.186 35.8607H263.508L271.132 11.4719L278.757 35.8607H282.078L291.364 6.23462Z" fill="black"/>
<path d="M311.52 6.23462H314.841L305.556 35.9388H302.234L311.52 6.23462Z" fill="black"/>
</g>
<defs>
<clipPath id="clip0_17376_1296">
<rect width="60" height="60" fill="white"/>
</clipPath>
<clipPath id="clip1_17376_1296">
<rect width="83" height="52" fill="white" transform="translate(85 4)"/>
</clipPath>
<clipPath id="clip2_17376_1296">
<rect width="154" height="48" fill="white" transform="translate(193 6)"/>
</clipPath>
</defs>
</svg>
