<svg width="72" height="73" viewBox="0 0 72 73" fill="none" xmlns="http://www.w3.org/2000/svg">
<g clip-path="url(#clip0_8971_2989)">
<path d="M26.655 65.7207H58.442C61.48 65.7207 63.942 63.2587 63.942 60.2207V60.0137C63.942 56.9757 61.48 54.5137 58.442 54.5137H51.442C48.404 54.5137 45.942 52.0517 45.942 49.0137C45.942 45.9757 48.404 43.5137 51.442 43.5137H63.942" stroke="#0B54A2" stroke-width="3" stroke-linejoin="round" stroke-dasharray="8 4"/>
<path d="M45.809 25.6687C45.809 40.5667 26.654 59.7207 26.654 59.7207C26.654 59.7207 7.49902 40.5657 7.49902 25.6687C7.49902 20.5887 9.51702 15.7167 13.109 12.1247C16.702 8.53167 21.574 6.51367 26.655 6.51367C31.736 6.51367 36.607 8.53167 40.199 12.1237C43.791 15.7157 45.809 20.5877 45.809 25.6677V25.6687Z" stroke="#333333" stroke-width="3" stroke-linecap="square" stroke-linejoin="round"/>
<path d="M30.9411 30.4008C33.5541 28.0338 33.7541 23.9958 31.3861 21.3818C29.0181 18.7678 24.9811 18.5688 22.3671 20.9368C19.7531 23.3048 19.5541 27.3418 21.9221 29.9558C24.2901 32.5698 28.3271 32.7688 30.9411 30.4008Z" fill="#0053A6" stroke="#0053A6" stroke-width="3" stroke-linejoin="round"/>
</g>
<defs>
<clipPath id="clip0_8971_2989">
<rect width="59.441" height="62.207" fill="white" transform="translate(6 5.01367)"/>
</clipPath>
</defs>
</svg>
