<svg width="72" height="73" viewBox="0 0 72 73" fill="none" xmlns="http://www.w3.org/2000/svg">
<g clip-path="url(#clip0_8971_2960)">
<path d="M23 70.5136H14.5L14 63.4136" stroke="#333333" stroke-width="3" stroke-linecap="square" stroke-linejoin="round"/>
<path d="M18.5 18.5137C19.0523 18.5137 19.5 18.066 19.5 17.5137C19.5 16.9614 19.0523 16.5137 18.5 16.5137C17.9477 16.5137 17.5 16.9614 17.5 17.5137C17.5 18.066 17.9477 18.5137 18.5 18.5137Z" fill="#333333" stroke="#333333"/>
<path d="M23.5 18.5137C24.0523 18.5137 24.5 18.066 24.5 17.5137C24.5 16.9614 24.0523 16.5137 23.5 16.5137C22.9477 16.5137 22.5 16.9614 22.5 17.5137C22.5 18.066 22.9477 18.5137 23.5 18.5137Z" fill="#333333" stroke="#333333"/>
<path d="M12 30.4137V21.5137" stroke="#333333" stroke-width="3" stroke-linecap="square" stroke-linejoin="round"/>
<path d="M12 12.4136H21" stroke="#333333" stroke-width="3" stroke-linecap="square" stroke-linejoin="round"/>
<path d="M49.5 21.0137C50.0523 21.0137 50.5 20.566 50.5 20.0137C50.5 19.4614 50.0523 19.0137 49.5 19.0137C48.9477 19.0137 48.5 19.4614 48.5 20.0137C48.5 20.566 48.9477 21.0137 49.5 21.0137Z" fill="#333333" stroke="#333333"/>
<path d="M54.5 21.0137C55.0523 21.0137 55.5 20.566 55.5 20.0137C55.5 19.4614 55.0523 19.0137 54.5 19.0137C53.9477 19.0137 53.5 19.4614 53.5 20.0137C53.5 20.566 53.9477 21.0137 54.5 21.0137Z" fill="#333333" stroke="#333333"/>
<path d="M46 52.5137H52V42.0137C52 38.0137 50.4 34.2137 47.6 31.4137C44.8 28.6137 41 27.0137 37 27.0137C33 27.0137 29.2 28.6137 26.4 31.4137C23.6 34.2137 22 38.0137 22 42.0137V52.5137H28" stroke="#333333" stroke-width="3" stroke-linecap="round" stroke-linejoin="round"/>
<path d="M46 52.5137L44.5 70.5137H29.5L28 52.5137H46Z" fill="#0053A6" stroke="#0053A6" stroke-width="3" stroke-linecap="round" stroke-linejoin="round"/>
<path d="M28 52.5137V43.5137" stroke="#333333" stroke-width="3" stroke-linecap="square" stroke-linejoin="round"/>
<path d="M46 52.5137V43.5137" stroke="#333333" stroke-width="3" stroke-linecap="square" stroke-linejoin="round"/>
<path d="M37 70.5137V58.5137" stroke="#333333" stroke-width="3" stroke-linecap="square" stroke-linejoin="round"/>
<path d="M37 27.0137V42.0137" stroke="#333333" stroke-width="3" stroke-linecap="square" stroke-linejoin="round"/>
<path d="M47.4 10.4138C45.1 11.4138 42.6 12.0138 40 12.0138C35.4 12.0138 31 10.3138 27.7 7.11377C26.9 8.61377 26.5 10.2138 26.5 12.0138C26.5 17.8138 31.2 22.5138 37 22.5138C42.8 22.5138 47.5 17.8138 47.5 12.0138C47.5 11.5138 47.4 10.9138 47.4 10.4138Z" stroke="#333333" stroke-width="3" stroke-linecap="round" stroke-linejoin="round"/>
<path d="M47.4 10.4137C46.6 5.41367 42.3 1.51367 37 1.51367C33 1.51367 29.5 3.81367 27.7 7.11367C31 10.2137 35.4 12.0137 40 12.0137C42.5 12.0137 45 11.5137 47.4 10.4137Z" fill="#0B54A2" stroke="#0B54A2" stroke-width="3" stroke-linecap="round" stroke-linejoin="round"/>
<path d="M34.5 17.0137C35.0523 17.0137 35.5 16.566 35.5 16.0137C35.5 15.4614 35.0523 15.0137 34.5 15.0137C33.9477 15.0137 33.5 15.4614 33.5 16.0137C33.5 16.566 33.9477 17.0137 34.5 17.0137Z" fill="#333333" stroke="#333333"/>
<path d="M39.5 17.0137C40.0523 17.0137 40.5 16.566 40.5 16.0137C40.5 15.4614 40.0523 15.0137 39.5 15.0137C38.9477 15.0137 38.5 15.4614 38.5 16.0137C38.5 16.566 38.9477 17.0137 39.5 17.0137Z" fill="#333333" stroke="#333333"/>
<path d="M45.1621 23.9726C47.0001 25.5526 49.3851 26.5136 52.0001 26.5136C57.8001 26.5136 62.5001 21.8136 62.5001 16.0136C62.5001 15.5136 62.4001 14.9136 62.4001 14.4136C60.1001 15.4136 57.6001 16.0136 55.0001 16.0136C53.6581 16.0136 52.3371 15.8516 51.0511 15.5666" stroke="#333333" stroke-width="3" stroke-linejoin="round"/>
<path d="M51.0551 15.5497C52.3401 15.8437 53.6591 16.0137 55.0001 16.0137C57.5001 16.0137 60.0001 15.5137 62.4001 14.4137C61.6001 9.41367 57.3001 5.51367 52.0001 5.51367C51.3391 5.51367 50.6981 5.59767 50.0701 5.71767" stroke="#333333" stroke-width="3" stroke-linejoin="round"/>
<path d="M60.839 55.0135H67C67.829 55.0135 68.5 54.3415 68.5 53.5135V47.4136C68.5 43.0156 66.781 38.8736 63.661 35.7536C60.539 32.6326 56.398 30.9136 52 30.9136" stroke="#0B54A2" stroke-width="3" stroke-linejoin="round"/>
<path d="M51 70.5137H59.5L61 56.5137H56H55" stroke="#333333" stroke-width="3" stroke-linecap="square" stroke-linejoin="round"/>
<path d="M21 29.9136C16.619 29.9136 12.49 31.5276 9.373 34.4586C6.231 37.4136 4.5 41.3406 4.5 45.5186L4.5 54.0135C4.5 54.8415 5.171 55.5135 6 55.5135H10.4062M11 41.0135V62.0135H24.5" stroke="#0B54A2" stroke-width="3" stroke-linejoin="round"/>
<path d="M23.249 5.77667C22.525 5.60967 21.775 5.51367 21 5.51367C15.477 5.51367 11 9.99067 11 15.5137C11 21.0367 15.477 25.5137 21 25.5137C23.37 25.5137 25.545 24.6847 27.259 23.3067" stroke="#333333" stroke-width="3" stroke-linejoin="round"/>
<path d="M61 56.5137V47.5137" stroke="#333333" stroke-width="3" stroke-linecap="square" stroke-linejoin="round"/>
</g>
<defs>
<clipPath id="clip0_8971_2960">
<rect width="67" height="72" fill="white" transform="translate(3 0.0136719)"/>
</clipPath>
</defs>
</svg>
