<?xml version="1.0" encoding="UTF-8"?>
<svg id="Ebene_1" data-name="Ebene 1" xmlns="http://www.w3.org/2000/svg" width="251.1" height="74.3" xmlns:xlink="http://www.w3.org/1999/xlink" version="1.1" viewBox="0 0 251.1 74.3">
  <defs>
    <clipPath id="clippath">
      <rect width="251.1" height="74.3" fill="none" stroke-width="0"/>
    </clipPath>
    <clipPath id="clippath-1">
      <rect width="251.1" height="74.3" fill="none" stroke-width="0"/>
    </clipPath>
  </defs>
  <polygon points="166.6 46.5 181.7 0 187.1 0 172 46.5 166.6 46.5" fill="#00b1be" stroke-width="0"/>
  <g clip-path="url(#clippath)">
    <path d="M0,46.5h5.2V0H0v46.5ZM46.7,33.6c0,4.3-3.5,7.8-7.8,7.8h-15.5s0-15.5,0-15.5h15.5c4.3,0,7.8,3.5,7.8,7.8M45.9,12.9c0,4.3-3.5,7.8-7.8,7.8h-14.7V5.2h14.7c4.3,0,7.8,3.5,7.8,7.8M46.3,23c2.9-2.4,4.8-6,4.8-10C51,5.8,45.3,0,38.1,0h-19.8v46.5h20.7c7.1,0,12.9-5.8,12.9-12.9s-2.2-8.3-5.6-10.7M82.3,28.7h-13.2l6.6-20.3,6.6,20.3ZM93.6,46.5L78.4,0h0s-5.4,0-5.4,0h0s-15.1,46.5-15.1,46.5h5.4l4.1-12.7h16.5l4.1,12.7h5.4ZM159.9,0h-5.4l-12.4,38.2L129.6,0h-5.5l-12.4,38.2L99.3,0h-5.4l15.1,46.5h5.4l12.4-38.2,12.4,38.2h5.5L159.9,0Z" fill="#000" stroke-width="0"/>
    <polygon points="192.6 0 198.1 0 182.9 46.5 177.5 46.5 192.6 0" fill="#000" stroke-width="0"/>
    <polygon points="6.1 73.9 3.6 73.9 0 58.6 2.8 58.6 5.1 69.6 8.2 58.6 10.6 58.6 13.8 69.6 16.2 58.6 18.9 58.6 15.3 73.9 12.8 73.9 9.4 62.8 6.1 73.9" fill="#000" stroke-width="0"/>
    <path d="M29.1,69.1c0,3-1.4,5.1-4.7,5.1s-4.7-2-4.7-5.1v-1.4c0-3.3,1.7-5,4.7-5s4.7,1.8,4.7,5v1.4ZM26.7,69v-1.3c0-1.9-.8-3-2.4-3s-2.4,1.1-2.4,3v1.3c0,1.7.6,3.1,2.4,3.1s2.4-1.4,2.4-3.1" fill="#000" stroke-width="0"/>
    <polygon points="40.1 71.7 47 71.7 47 73.9 37.6 73.9 37.6 58.6 40.1 58.6 40.1 71.7" fill="#000" stroke-width="0"/>
    <path d="M57.2,72.3c-.8,1.4-2,1.9-4,1.9-3.2,0-4.9-2.1-4.9-5v-1.5c0-3.3,1.6-5,4.5-5s4.5,1.8,4.5,5.1v1.2h-6.6c0,1.8.7,3.1,2.4,3.1s1.8-.4,2.3-1.1l1.8,1.2ZM50.7,67.2h4.2c0-1.6-.8-2.4-2.1-2.4s-2,.9-2.1,2.4" fill="#000" stroke-width="0"/>
    <path d="M65.6,65.6c-.4-.5-.8-.9-1.6-.9-1.2,0-2,.9-2,2.5v6.7h-2.4v-11.1h2.3v1c.4-.6,1.2-1.2,2.5-1.2s2.4.6,3.1,1.6l-1.9,1.3Z" fill="#000" stroke-width="0"/>
    <path d="M69,62.8h2.3v1c.5-.7,1.3-1.2,2.8-1.2,2.3,0,4,1.2,4,4.4v7h-2.4v-6.7c0-2-.9-2.5-2.1-2.5s-2.3,1-2.3,2.5v6.7h-2.4v-11.1Z" fill="#000" stroke-width="0"/>
    <path d="M89.1,72.3c-.8,1.4-2,1.9-4,1.9-3.2,0-4.9-2.1-4.9-5v-1.5c0-3.3,1.6-5,4.5-5s4.5,1.8,4.5,5.1v1.2h-6.6c0,1.8.7,3.1,2.4,3.1s1.8-.4,2.3-1.1l1.8,1.2ZM82.6,67.2h4.2c0-1.6-.8-2.4-2.1-2.4s-2,.9-2.1,2.4" fill="#000" stroke-width="0"/>
    <path d="M91.5,62.8h2.3v1c.5-.7,1.3-1.2,2.8-1.2,2.3,0,4,1.2,4,4.4v7h-2.4v-6.7c0-2-.9-2.5-2.1-2.5s-2.3,1-2.3,2.5v6.7h-2.4v-11.1Z" fill="#000" stroke-width="0"/>
    <polygon points="118.8 73.9 114.4 67 112.1 69.9 112.1 73.9 109.6 73.9 109.6 58.6 112.1 58.6 112.1 66 117.8 58.6 120.9 58.6 116.1 64.8 121.9 73.9 118.8 73.9" fill="#000" stroke-width="0"/>
    <path d="M127.1,67.4h2.4v-.9c0-1.4-.5-1.8-2.2-1.8s-1.8.1-2.3,1l-1.7-1.2c.8-1.3,2-1.8,4.2-1.8s4.4.9,4.4,3.8v7.5h-2.3v-1c-.5.9-1.2,1.2-2.6,1.2-2.4,0-4-1.2-4-3.5s1.8-3.3,4.1-3.3M129.5,69.2h-2.2c-1.4,0-2,.5-2,1.5s.8,1.4,1.9,1.4,2.3-.4,2.3-2.4v-.5Z" fill="#000" stroke-width="0"/>
    <path d="M140.4,65.6c-.4-.5-.8-.9-1.6-.9-1.2,0-2,.9-2,2.5v6.7h-2.4v-11.1h2.3v1c.4-.6,1.2-1.2,2.5-1.2s2.4.6,3.1,1.6l-1.9,1.3Z" fill="#000" stroke-width="0"/>
    <path d="M149.8,65.6c-.4-.5-.8-.9-1.6-.9-1.2,0-2,.9-2,2.5v6.7h-2.4v-11.1h2.3v1c.4-.6,1.2-1.2,2.5-1.2s2.4.6,3.1,1.6l-1.9,1.3Z" fill="#000" stroke-width="0"/>
    <path d="M153.2,58.6h2.6v2.4h-2.6v-2.4ZM153.4,62.8h2.4v11.1h-2.4v-11.1Z" fill="#000" stroke-width="0"/>
    <path d="M166.9,72.3c-.8,1.4-2,1.9-4,1.9-3.2,0-4.9-2.1-4.9-5v-1.5c0-3.3,1.6-5,4.5-5s4.5,1.8,4.5,5.1v1.2h-6.6c0,1.8.7,3.1,2.4,3.1s1.8-.4,2.3-1.1l1.8,1.2ZM160.4,67.2h4.2c0-1.6-.8-2.4-2.1-2.4s-2,.9-2.1,2.4" fill="#000" stroke-width="0"/>
    <path d="M175.3,65.6c-.4-.5-.8-.9-1.6-.9-1.2,0-2,.9-2,2.5v6.7h-2.4v-11.1h2.3v1c.4-.6,1.2-1.2,2.5-1.2s2.4.6,3.1,1.6l-1.9,1.3Z" fill="#000" stroke-width="0"/>
    <path d="M186.9,72.3c-.8,1.4-2,1.9-4,1.9-3.2,0-4.9-2.1-4.9-5v-1.5c0-3.3,1.6-5,4.5-5s4.5,1.8,4.5,5.1v1.2h-6.6c0,1.8.7,3.1,2.4,3.1s1.8-.4,2.3-1.1l1.8,1.2ZM180.5,67.2h4.2c0-1.6-.8-2.4-2.1-2.4s-2,.9-2.1,2.4" fill="#000" stroke-width="0"/>
    <path d="M195.4,62.8h2.3v1c.4-.7,1.3-1.2,2.6-1.2s2.5.6,3.2,1.6c.7-1,1.9-1.6,3.2-1.6,2.4,0,3.8,1.5,3.8,4.4v7h-2.4v-6.7c0-1.8-.8-2.5-2-2.5s-2,.9-2.1,2.4v6.8h-2.4v-6.7c0-1.9-.8-2.5-2-2.5s-2.1.9-2.1,2.5v6.7h-2.4v-11.1Z" fill="#000" stroke-width="0"/>
    <path d="M216.7,67.4h2.4v-.9c0-1.4-.5-1.8-2.2-1.8s-1.8.1-2.3,1l-1.7-1.2c.8-1.3,2-1.8,4.2-1.8s4.4.9,4.4,3.8v7.5h-2.3v-1c-.5.9-1.2,1.2-2.6,1.2-2.4,0-4-1.2-4-3.5s1.8-3.3,4.1-3.3M219.1,69.2h-2.2c-1.4,0-2,.5-2,1.5s.8,1.4,1.9,1.4,2.3-.4,2.3-2.4v-.5Z" fill="#000" stroke-width="0"/>
    <path d="M232.4,72.3c-.7,1.3-2,1.9-4,1.9-3.1,0-4.9-2-4.9-5v-1.5c0-3.2,1.8-5,5-5s3.1.6,3.9,1.8l-1.8,1.3c-.4-.6-1.1-1-2.1-1-1.7,0-2.6,1.1-2.6,3v1.3c0,1.7.6,3.1,2.6,3.1s1.7-.3,2.1-1.1l1.8,1.2Z" fill="#000" stroke-width="0"/>
    <path d="M234.1,58.6h2.4v5.2c.5-.7,1.3-1.2,2.7-1.2,2.3,0,4,1.2,4,4.4v7h-2.4v-6.7c0-2-.9-2.5-2.1-2.5s-2.3,1-2.3,2.5v6.7h-2.4v-15.3Z" fill="#000" stroke-width="0"/>
    <path d="M244.9,62.8h1.4v-2.4h2.4v2.4h2.4v2h-2.4v5.1c0,1.3.2,1.8,1.4,1.8h.9v2.1h-1.1c-2.7,0-3.6-.9-3.6-3.5v-5.5h-1.4v-2Z" fill="#000" stroke-width="0"/>
  </g>
  <g clip-path="url(#clippath-1)">
    <path d="M0,46.5h5.2V0H0v46.5ZM46.7,33.6c0,4.3-3.5,7.8-7.8,7.8h-15.5s0-15.5,0-15.5h15.5c4.3,0,7.8,3.5,7.8,7.8M45.9,12.9c0,4.3-3.5,7.8-7.8,7.8h-14.7V5.2h14.7c4.3,0,7.8,3.5,7.8,7.8M46.3,23c2.9-2.4,4.8-6,4.8-10C51,5.8,45.3,0,38.1,0h-19.8v46.5h20.7c7.1,0,12.9-5.8,12.9-12.9s-2.2-8.3-5.6-10.7M82.3,28.7h-13.2l6.6-20.3,6.6,20.3ZM93.6,46.5L78.4,0h0s-5.4,0-5.4,0h0s-15.1,46.5-15.1,46.5h5.4l4.1-12.7h16.5l4.1,12.7h5.4ZM159.9,0h-5.4l-12.4,38.2L129.6,0h-5.5l-12.4,38.2L99.3,0h-5.4l15.1,46.5h5.4l12.4-38.2,12.4,38.2h5.5L159.9,0Z" fill="#000" stroke-width="0"/>
    <polygon points="192.6 0 198.1 0 182.9 46.5 177.5 46.5 192.6 0" fill="#000" stroke-width="0"/>
    <polygon points="6.1 73.9 3.6 73.9 0 58.6 2.8 58.6 5.1 69.6 8.2 58.6 10.6 58.6 13.8 69.6 16.2 58.6 18.9 58.6 15.3 73.9 12.8 73.9 9.4 62.8 6.1 73.9" fill="#000" stroke-width="0"/>
    <path d="M29.1,69.1c0,3-1.4,5.1-4.7,5.1s-4.7-2-4.7-5.1v-1.4c0-3.3,1.7-5,4.7-5s4.7,1.8,4.7,5v1.4ZM26.7,69v-1.3c0-1.9-.8-3-2.4-3s-2.4,1.1-2.4,3v1.3c0,1.7.6,3.1,2.4,3.1s2.4-1.4,2.4-3.1" fill="#000" stroke-width="0"/>
    <polygon points="40.1 71.7 47 71.7 47 73.9 37.6 73.9 37.6 58.6 40.1 58.6 40.1 71.7" fill="#000" stroke-width="0"/>
    <path d="M57.2,72.3c-.8,1.4-2,1.9-4,1.9-3.2,0-4.9-2.1-4.9-5v-1.5c0-3.3,1.6-5,4.5-5s4.5,1.8,4.5,5.1v1.2h-6.6c0,1.8.7,3.1,2.4,3.1s1.8-.4,2.3-1.1l1.8,1.2ZM50.7,67.2h4.2c0-1.6-.8-2.4-2.1-2.4s-2,.9-2.1,2.4" fill="#000" stroke-width="0"/>
    <path d="M65.6,65.6c-.4-.5-.8-.9-1.6-.9-1.2,0-2,.9-2,2.5v6.7h-2.4v-11.1h2.3v1c.4-.6,1.2-1.2,2.5-1.2s2.4.6,3.1,1.6l-1.9,1.3Z" fill="#000" stroke-width="0"/>
    <path d="M69,62.8h2.3v1c.5-.7,1.3-1.2,2.8-1.2,2.3,0,4,1.2,4,4.4v7h-2.4v-6.7c0-2-.9-2.5-2.1-2.5s-2.3,1-2.3,2.5v6.7h-2.4v-11.1Z" fill="#000" stroke-width="0"/>
    <path d="M89.1,72.3c-.8,1.4-2,1.9-4,1.9-3.2,0-4.9-2.1-4.9-5v-1.5c0-3.3,1.6-5,4.5-5s4.5,1.8,4.5,5.1v1.2h-6.6c0,1.8.7,3.1,2.4,3.1s1.8-.4,2.3-1.1l1.8,1.2ZM82.6,67.2h4.2c0-1.6-.8-2.4-2.1-2.4s-2,.9-2.1,2.4" fill="#000" stroke-width="0"/>
    <path d="M91.5,62.8h2.3v1c.5-.7,1.3-1.2,2.8-1.2,2.3,0,4,1.2,4,4.4v7h-2.4v-6.7c0-2-.9-2.5-2.1-2.5s-2.3,1-2.3,2.5v6.7h-2.4v-11.1Z" fill="#000" stroke-width="0"/>
    <polygon points="118.8 73.9 114.4 67 112.1 69.9 112.1 73.9 109.6 73.9 109.6 58.6 112.1 58.6 112.1 66 117.8 58.6 120.9 58.6 116.1 64.8 121.9 73.9 118.8 73.9" fill="#000" stroke-width="0"/>
    <path d="M127.1,67.4h2.4v-.9c0-1.4-.5-1.8-2.2-1.8s-1.8.1-2.3,1l-1.7-1.2c.8-1.3,2-1.8,4.2-1.8s4.4.9,4.4,3.8v7.5h-2.3v-1c-.5.9-1.2,1.2-2.6,1.2-2.4,0-4-1.2-4-3.5s1.8-3.3,4.1-3.3M129.5,69.2h-2.2c-1.4,0-2,.5-2,1.5s.8,1.4,1.9,1.4,2.3-.4,2.3-2.4v-.5Z" fill="#000" stroke-width="0"/>
    <path d="M140.4,65.6c-.4-.5-.8-.9-1.6-.9-1.2,0-2,.9-2,2.5v6.7h-2.4v-11.1h2.3v1c.4-.6,1.2-1.2,2.5-1.2s2.4.6,3.1,1.6l-1.9,1.3Z" fill="#000" stroke-width="0"/>
    <path d="M149.8,65.6c-.4-.5-.8-.9-1.6-.9-1.2,0-2,.9-2,2.5v6.7h-2.4v-11.1h2.3v1c.4-.6,1.2-1.2,2.5-1.2s2.4.6,3.1,1.6l-1.9,1.3Z" fill="#000" stroke-width="0"/>
    <path d="M153.2,58.6h2.6v2.4h-2.6v-2.4ZM153.4,62.8h2.4v11.1h-2.4v-11.1Z" fill="#000" stroke-width="0"/>
    <path d="M166.9,72.3c-.8,1.4-2,1.9-4,1.9-3.2,0-4.9-2.1-4.9-5v-1.5c0-3.3,1.6-5,4.5-5s4.5,1.8,4.5,5.1v1.2h-6.6c0,1.8.7,3.1,2.4,3.1s1.8-.4,2.3-1.1l1.8,1.2ZM160.4,67.2h4.2c0-1.6-.8-2.4-2.1-2.4s-2,.9-2.1,2.4" fill="#000" stroke-width="0"/>
    <path d="M175.3,65.6c-.4-.5-.8-.9-1.6-.9-1.2,0-2,.9-2,2.5v6.7h-2.4v-11.1h2.3v1c.4-.6,1.2-1.2,2.5-1.2s2.4.6,3.1,1.6l-1.9,1.3Z" fill="#000" stroke-width="0"/>
    <path d="M186.9,72.3c-.8,1.4-2,1.9-4,1.9-3.2,0-4.9-2.1-4.9-5v-1.5c0-3.3,1.6-5,4.5-5s4.5,1.8,4.5,5.1v1.2h-6.6c0,1.8.7,3.1,2.4,3.1s1.8-.4,2.3-1.1l1.8,1.2ZM180.5,67.2h4.2c0-1.6-.8-2.4-2.1-2.4s-2,.9-2.1,2.4" fill="#000" stroke-width="0"/>
    <path d="M195.4,62.8h2.3v1c.4-.7,1.3-1.2,2.6-1.2s2.5.6,3.2,1.6c.7-1,1.9-1.6,3.2-1.6,2.4,0,3.8,1.5,3.8,4.4v7h-2.4v-6.7c0-1.8-.8-2.5-2-2.5s-2,.9-2.1,2.4v6.8h-2.4v-6.7c0-1.9-.8-2.5-2-2.5s-2.1.9-2.1,2.5v6.7h-2.4v-11.1Z" fill="#000" stroke-width="0"/>
    <path d="M216.7,67.4h2.4v-.9c0-1.4-.5-1.8-2.2-1.8s-1.8.1-2.3,1l-1.7-1.2c.8-1.3,2-1.8,4.2-1.8s4.4.9,4.4,3.8v7.5h-2.3v-1c-.5.9-1.2,1.2-2.6,1.2-2.4,0-4-1.2-4-3.5s1.8-3.3,4.1-3.3M219.1,69.2h-2.2c-1.4,0-2,.5-2,1.5s.8,1.4,1.9,1.4,2.3-.4,2.3-2.4v-.5Z" fill="#000" stroke-width="0"/>
    <path d="M232.4,72.3c-.7,1.3-2,1.9-4,1.9-3.1,0-4.9-2-4.9-5v-1.5c0-3.2,1.8-5,5-5s3.1.6,3.9,1.8l-1.8,1.3c-.4-.6-1.1-1-2.1-1-1.7,0-2.6,1.1-2.6,3v1.3c0,1.7.6,3.1,2.6,3.1s1.7-.3,2.1-1.1l1.8,1.2Z" fill="#000" stroke-width="0"/>
    <path d="M234.1,58.6h2.4v5.2c.5-.7,1.3-1.2,2.7-1.2,2.3,0,4,1.2,4,4.4v7h-2.4v-6.7c0-2-.9-2.5-2.1-2.5s-2.3,1-2.3,2.5v6.7h-2.4v-15.3Z" fill="#000" stroke-width="0"/>
    <path d="M244.9,62.8h1.4v-2.4h2.4v2.4h2.4v2h-2.4v5.1c0,1.3.2,1.8,1.4,1.8h.9v2.1h-1.1c-2.7,0-3.6-.9-3.6-3.5v-5.5h-1.4v-2Z" fill="#000" stroke-width="0"/>
  </g>
</svg>