<svg width="189" height="74" viewBox="0 0 189 74" fill="none" xmlns="http://www.w3.org/2000/svg">
<g clip-path="url(#clip0_4424_204751)">
<g clip-path="url(#clip1_4424_204751)">
<path d="M84.5433 57.3668C85.699 57.3668 86.1435 57.4562 86.6325 57.7245C87.477 58.1717 87.966 59.2001 87.966 60.3626C87.966 61.5698 87.4326 62.5982 86.5436 63.0454C86.0546 63.3136 85.6546 63.3584 84.41 63.3584H83.521V57.3668H84.5433ZM84.7211 62.7771C85.6546 62.7771 85.9213 62.7324 86.3658 62.4641C86.9436 62.1064 87.2992 61.3463 87.2992 60.3626C87.2992 59.3342 86.9436 58.5741 86.2324 58.2164C85.8324 57.9928 85.6101 57.9928 84.5433 57.9928H84.2766V62.8218H84.7211V62.7771Z" fill="black"/>
<path d="M92.4998 59.9602V60.5414H90.0995V62.7771H92.7665V63.3584H89.4327V57.3668H92.722V57.9481H90.0995V59.9602H92.4998Z" fill="black"/>
<path d="M93.9667 63.3584V57.3668H94.6334V63.3584H93.9667Z" fill="black"/>
<path d="M97.0782 57.3668L99.9229 62.33V57.3668H100.545V63.3584H99.7896L96.9448 58.3952V63.3584H96.3225V57.3668H97.0782Z" fill="black"/>
<path d="M105.346 59.9602V60.5414H102.945V62.7771H105.612V63.3584H102.234V57.3668H105.524V57.9481H102.901V59.9602H105.346Z" fill="black"/>
<path d="M110.502 57.3669C111.302 57.3669 111.613 57.4116 111.969 57.501C112.547 57.6799 112.902 58.1717 112.902 58.8424C112.902 59.5131 112.591 59.9602 111.924 60.1391C112.813 60.3626 113.213 60.8545 113.213 61.6593C113.213 62.3747 112.813 63.0007 112.191 63.1795C111.791 63.3137 111.48 63.3137 110.458 63.3137H109.435V57.3221H110.502V57.3669ZM110.635 59.9602C111.213 59.9602 111.524 59.9155 111.747 59.7814C112.013 59.6472 112.191 59.2895 112.191 58.9318C112.191 58.5294 112.013 58.2164 111.658 58.0823C111.435 57.9928 111.213 57.9928 110.591 57.9928H110.057V60.0049H110.635V59.9602ZM110.68 62.7771C111.391 62.7771 111.702 62.7324 111.969 62.643C112.28 62.5089 112.502 62.1511 112.502 61.6593C112.502 61.1675 112.236 60.765 111.835 60.6309C111.569 60.5415 111.347 60.5415 110.68 60.5415H110.102V62.8218H110.68V62.7771Z" fill="black"/>
<path d="M117.614 59.9602V60.5414H115.214V62.7771H117.881V63.3584H114.547V57.3668H117.836V57.9481H115.214V59.9602H117.614Z" fill="black"/>
<path d="M120.192 57.3668C121.125 57.3668 121.437 57.4115 121.837 57.5457C122.414 57.7692 122.814 58.3505 122.814 59.0659C122.814 59.8708 122.414 60.4073 121.57 60.6756L123.126 63.3584H122.326L120.814 60.8097H119.792V63.3584H119.125V57.3668H120.192ZM120.236 60.2285C120.948 60.2285 121.17 60.2284 121.437 60.0943C121.881 59.9602 122.103 59.5578 122.103 59.0659C122.103 58.6188 121.881 58.2611 121.525 58.1269C121.259 57.9928 121.036 57.9928 120.192 57.9928H119.792V60.2732H120.236V60.2285Z" fill="black"/>
<path d="M124.859 57.3668V60.8991C124.859 61.7934 124.904 62.017 125.037 62.2853C125.259 62.643 125.704 62.8665 126.282 62.8665C126.904 62.8665 127.393 62.5982 127.571 62.1511C127.659 61.9275 127.704 61.6593 127.704 60.8991V57.3668H128.371V60.8991C128.371 61.8381 128.371 62.017 128.237 62.33C127.971 63.0454 127.215 63.4478 126.282 63.4478C125.304 63.4478 124.592 63.0454 124.326 62.33C124.192 62.017 124.192 61.8381 124.192 60.8991V57.3668H124.859Z" fill="black"/>
<path d="M133.127 59.9602V60.5414H130.727V63.3584H130.06V57.3668H133.349V57.9481H130.727V59.9602H133.127Z" fill="black"/>
<path d="M135.216 57.3668V62.7771H137.75V63.3584H134.505V57.3668H135.216Z" fill="black"/>
<path d="M138.905 63.3584V57.3668H139.572V63.3584H138.905Z" fill="black"/>
<path d="M144.817 59.0212C144.639 58.2164 144.195 57.8586 143.439 57.8586C142.372 57.8586 141.706 58.8423 141.706 60.3626C141.706 61.9275 142.372 62.8665 143.439 62.8665C144.284 62.8665 144.773 62.3299 144.862 61.3016H145.484C145.395 62.6877 144.639 63.4478 143.439 63.4478C141.928 63.4478 140.95 62.2405 140.95 60.3626C140.95 58.4846 141.928 57.2327 143.395 57.2327C144.506 57.2327 145.217 57.8586 145.35 59.0212H144.817Z" fill="black"/>
<path d="M150.373 59.9602V57.3668H151.04V63.3584H150.373V60.4967H147.573V63.3584H146.906V57.3668H147.573V59.9602H150.373Z" fill="black"/>
<path d="M155.796 59.9602V60.5414H153.396V62.7771H156.063V63.3584H152.729V57.3668H156.018V57.9481H153.396V59.9602H155.796Z" fill="black"/>
<path d="M85.8768 67.0696L87.9215 73.1058H87.2103L86.6769 71.4962H84.4544L83.921 73.1058H83.2543L85.299 67.0696H85.8768ZM85.5657 67.9191L84.6322 70.9149H86.4991L85.5657 67.9191Z" fill="black"/>
<path d="M89.4773 67.1143V70.6466C89.4773 71.5408 89.5217 71.7644 89.6551 72.0327C89.8773 72.3904 90.3218 72.614 90.8997 72.614C91.522 72.614 92.0109 72.3457 92.1887 71.8985C92.2776 71.675 92.3221 71.4067 92.3221 70.6466V67.1143H92.9888V70.6466C92.9888 71.5856 92.9888 71.7644 92.8555 72.0774C92.5888 72.7928 91.8331 73.1952 90.8997 73.1952C89.9218 73.1952 89.2106 72.7928 88.9439 72.0774C88.8105 71.7644 88.8105 71.5856 88.8105 70.6466V67.1143H89.4773Z" fill="black"/>
<path d="M97.4338 68.6345C97.3893 67.9638 96.9448 67.5614 96.2781 67.5614C95.6558 67.5614 95.1668 67.9638 95.1668 68.4556C95.1668 68.7239 95.3002 68.9475 95.5224 69.0816C95.7002 69.2158 95.7002 69.2157 96.5892 69.6182C97.3449 69.9759 97.656 70.1547 97.8783 70.423C98.1005 70.6913 98.2338 71.049 98.2338 71.4514C98.2338 72.4798 97.4338 73.1505 96.2781 73.1505C95.5669 73.1505 94.989 72.9269 94.6779 72.4798C94.4112 72.1668 94.3223 71.8091 94.2778 71.2278H94.9446C94.989 72.0774 95.478 72.5692 96.3225 72.5692C97.0337 72.5692 97.5671 72.1221 97.5671 71.5408C97.5671 71.2278 97.4338 71.0043 97.2115 70.8254C97.0337 70.6466 96.8559 70.6019 96.2781 70.3336C95.6558 70.0653 95.2557 69.8417 95.0779 69.6629C94.7223 69.3946 94.5445 68.9922 94.5445 68.5451C94.5445 67.6508 95.3002 66.9801 96.3225 66.9801C96.9448 66.9801 97.4782 67.2037 97.7894 67.6508C97.9672 67.9191 98.056 68.1874 98.1005 68.6345H97.4338Z" fill="black"/>
<path d="M101.701 69.8417V70.3335H99.2561V69.8417H101.701Z" fill="black"/>
<path d="M105.746 67.1143V70.6466C105.746 71.5408 105.79 71.7644 105.924 72.0327C106.146 72.3904 106.59 72.614 107.168 72.614C107.791 72.614 108.279 72.3457 108.457 71.8985C108.546 71.675 108.591 71.4067 108.591 70.6466V67.1143H109.257V70.6466C109.257 71.5856 109.257 71.7644 109.124 72.0774C108.857 72.7928 108.102 73.1952 107.168 73.1952C106.19 73.1952 105.479 72.7928 105.212 72.0774C105.079 71.7644 105.079 71.5856 105.079 70.6466V67.1143H105.746Z" fill="black"/>
<path d="M111.658 67.1143L114.502 72.0774V67.1143H115.125V73.1058H114.369L111.524 68.1427V73.1058H110.902V67.1143H111.658Z" fill="black"/>
<path d="M117.792 67.1143C118.947 67.1143 119.392 67.2037 119.881 67.472C120.725 67.9191 121.214 68.9475 121.214 70.11C121.214 71.3173 120.681 72.3457 119.792 72.7928C119.303 73.0611 118.903 73.1058 117.703 73.1058H116.814V67.1143H117.792ZM117.969 72.5245C118.903 72.5245 119.17 72.4798 119.614 72.2115C120.192 71.8538 120.548 71.0937 120.548 70.11C120.548 69.0816 120.192 68.3215 119.481 67.9638C119.081 67.7402 118.858 67.7402 117.792 67.7402H117.525V72.5692H117.969V72.5245Z" fill="black"/>
<path d="M125.17 67.1143L126.326 72.2115L127.571 67.1143H128.148L129.393 72.2115L130.549 67.1143H131.171L129.749 73.1505H129.037L127.837 68.4556L126.682 73.1505H125.97L124.548 67.1143H125.17Z" fill="black"/>
<path d="M135.394 69.7076V70.2889H132.993V72.5245H135.66V73.1058H132.327V67.1143H135.616V67.6955H132.993V69.7076H135.394Z" fill="black"/>
<path d="M136.905 73.1058V67.1143H137.572V73.1058H136.905Z" fill="black"/>
<path d="M142.461 67.1143V67.6955H140.905V73.1058H140.239V67.6955H138.683V67.1143H142.461Z" fill="black"/>
<path d="M146.684 69.7076V70.2889H144.284V72.5245H146.951V73.1058H143.573V67.1143H146.862V67.6955H144.239V69.7076H146.684Z" fill="black"/>
<path d="M149.218 67.1143C150.151 67.1143 150.462 67.159 150.862 67.2931C151.44 67.5167 151.84 68.0979 151.84 68.8133C151.84 69.6182 151.44 70.1547 150.595 70.423L152.151 73.1058H151.351L149.84 70.5572H148.818V73.1058H148.151V67.1143H149.218ZM149.262 69.9312C149.973 69.9312 150.195 69.9312 150.462 69.797C150.907 69.6629 151.129 69.2605 151.129 68.7686C151.129 68.3215 150.907 67.9638 150.551 67.8297C150.284 67.6955 150.062 67.6955 149.218 67.6955H148.818V69.9759H149.262V69.9312Z" fill="black"/>
<path d="M154.463 67.1143C155.263 67.1143 155.574 67.159 155.93 67.2484C156.507 67.4273 156.863 67.9191 156.863 68.5898C156.863 69.2605 156.552 69.7076 155.885 69.8865C156.774 70.1101 157.174 70.6019 157.174 71.4067C157.174 72.1221 156.774 72.7481 156.152 72.927C155.752 73.0611 155.441 73.0611 154.418 73.0611H153.351V67.0696H154.463V67.1143ZM154.596 69.6629C155.174 69.6629 155.485 69.6182 155.707 69.4841C155.974 69.3499 156.152 68.9922 156.152 68.6345C156.152 68.2321 155.974 67.9191 155.618 67.785C155.396 67.6956 155.174 67.6956 154.552 67.6956H154.018V69.7076H154.596V69.6629ZM154.596 72.5246C155.307 72.5246 155.618 72.4798 155.885 72.3904C156.196 72.2563 156.418 71.8986 156.418 71.4067C156.418 70.9149 156.152 70.5125 155.752 70.3783C155.485 70.2889 155.263 70.2889 154.596 70.2889H154.018V72.5693H154.596V72.5246Z" fill="black"/>
<path d="M158.463 73.1058V67.1143H159.13V73.1058H158.463Z" fill="black"/>
<path d="M161.53 67.1143V72.5245H164.064V73.1058H160.819V67.1143H161.53Z" fill="black"/>
<path d="M166.197 67.1143C167.353 67.1143 167.798 67.2037 168.287 67.472C169.131 67.9191 169.62 68.9475 169.62 70.11C169.62 71.3173 169.087 72.3457 168.198 72.7928C167.709 73.0611 167.309 73.1058 166.108 73.1058H165.219V67.1143H166.197ZM166.331 72.5245C167.264 72.5245 167.531 72.4798 167.975 72.2115C168.553 71.8538 168.909 71.0937 168.909 70.11C168.909 69.0816 168.553 68.3215 167.842 67.9638C167.442 67.7402 167.22 67.7402 166.153 67.7402H165.886V72.5692H166.331V72.5245Z" fill="black"/>
<path d="M171.62 67.1143V70.6466C171.62 71.5408 171.665 71.7644 171.798 72.0327C172.02 72.3904 172.465 72.614 173.043 72.614C173.665 72.614 174.154 72.3457 174.332 71.8985C174.421 71.675 174.465 71.4067 174.465 70.6466V67.1143H175.132V70.6466C175.132 71.5856 175.132 71.7644 174.998 72.0774C174.732 72.7928 173.976 73.1952 173.043 73.1952C172.065 73.1952 171.354 72.7928 171.087 72.0774C170.953 71.7644 170.953 71.5856 170.953 70.6466V67.1143H171.62Z" fill="black"/>
<path d="M177.532 67.1143L180.377 72.0774V67.1143H180.999V73.1058H180.243L177.399 68.1427V73.1058H176.776V67.1143H177.532Z" fill="black"/>
<path d="M187 70.11V72.5692C186.422 72.9716 185.755 73.1952 185.044 73.1952C183.444 73.1952 182.466 72.0327 182.466 70.0653C182.466 68.1874 183.444 66.9801 184.955 66.9801C186.066 66.9801 186.778 67.6061 186.911 68.7239H186.289C186.111 67.9191 185.666 67.5614 184.955 67.5614C183.844 67.5614 183.177 68.5003 183.177 70.0653C183.177 71.675 183.844 72.5692 185.044 72.5692C185.489 72.5692 185.977 72.4351 186.378 72.1668V70.6466H185.177V70.0653H187V70.11Z" fill="black"/>
<path d="M83.6099 49.1396V5.455H98.2783C102.901 5.41029 106.368 6.03627 108.679 7.10938C113.391 9.30032 116.325 14.3082 116.325 20.2103C116.325 28.3033 111.88 35.4574 99.4339 35.4574H94.2333V49.1396H83.6099ZM98.9894 25.6653C103.434 25.6653 105.657 24.145 105.657 20.4339C105.657 16.9015 103.479 15.2919 98.5449 15.2919H94.2333V25.6653H98.9894Z" fill="black"/>
<path d="M159.441 50.2574C149.529 50.2574 141.883 42.8798 141.883 32.8641C141.883 22.7142 149.707 15.4707 159.441 15.4707C169.22 15.4707 176.999 22.8483 176.999 32.7746C176.999 43.0139 169.22 50.2574 159.441 50.2574ZM167.22 32.8641C167.22 28.4822 163.93 24.5922 159.352 24.5922C155.085 24.5922 151.618 28.348 151.618 32.8641C151.618 37.3801 155.041 41.136 159.441 41.136C164.019 41.0912 167.22 37.2012 167.22 32.8641Z" fill="black"/>
<path d="M184.066 50.2575C186.791 50.2575 189 48.0354 189 45.2943C189 42.5533 186.791 40.3312 184.066 40.3312C181.341 40.3312 179.132 42.5533 179.132 45.2943C179.132 48.0354 181.341 50.2575 184.066 50.2575Z" fill="black"/>
<path d="M139.261 16.5438C135.66 16.5438 132.682 18.6453 128.726 23.832L130.415 17.3039H122.814L114.813 49.1843H122.77L126.104 35.7257C127.971 28.1692 131.393 23.8768 135.527 23.8768C136.994 23.8768 138.327 24.4133 140.328 25.8441L142.461 17.2145C141.083 16.678 140.283 16.5438 139.261 16.5438Z" fill="black"/>
<path d="M73.4753 56.3831H0V74H73.4753V56.3831Z" fill="black"/>
<path d="M73.4753 0H0V54.684H73.4753V0Z" fill="black"/>
<path d="M34.5818 68.7239V64.4761L32.7594 68.7239H31.8704L30.0924 64.4761V68.7239H28.4033V61.7039H30.7147L32.4038 65.7728L34.1817 61.7039H36.2709V68.7239H34.5818ZM37.8266 68.7239V61.7039H39.249C39.4268 61.7039 39.5157 61.8381 39.5157 61.9722V68.7239H37.8266ZM44.6274 64.7444H46.8499C47.0277 64.7444 47.1166 64.8786 47.1166 65.0574V68.6344C46.4943 68.7686 45.5164 68.858 44.8052 68.858C42.2271 68.858 40.8936 67.5613 40.8936 65.1915C40.8936 63.09 42.2716 61.5698 44.4941 61.5698C45.5164 61.5698 46.3165 61.8381 46.8944 62.2405L46.2276 63.3583C45.6942 63.09 45.1164 63.0006 44.6274 63.0006C43.2495 63.0006 42.6716 63.9396 42.6716 65.2363C42.6716 66.6224 43.3828 67.5166 44.7608 67.5166C44.983 67.5166 45.3386 67.5166 45.6053 67.4719V66.0858H44.6719L44.6274 64.7444ZM52.6284 68.7239L51.7838 66.7565C51.606 66.3541 51.4727 66.1752 51.1171 66.1752H50.2725V68.7686H48.6279V62.0169C48.6279 61.8828 48.7612 61.7486 48.8946 61.7486H51.2504C52.5839 61.7486 53.7396 62.0169 53.7396 63.7607C53.7396 64.5656 53.2951 65.3257 52.495 65.5045C52.8951 65.6387 53.2951 66.1752 53.5174 66.7118L54.3174 68.7239H52.6284ZM51.2504 63.0006H50.317V64.7891H51.2504C51.7838 64.7891 52.2283 64.4761 52.2283 63.8054C52.2728 63.1347 51.8283 63.0006 51.2504 63.0006ZM58.3624 68.858C56.1399 68.858 54.9842 67.1589 54.9842 65.1915C54.9842 63.2242 56.1843 61.5698 58.4513 61.5698C60.5849 61.5698 61.7405 63.1795 61.7405 65.1468C61.7405 67.1142 60.4515 68.858 58.3624 68.858ZM58.4068 62.9559C57.4289 62.9559 56.7622 63.6713 56.7622 65.1915C56.7622 66.7118 57.4289 67.4719 58.4068 67.4719C59.2514 67.4719 59.9181 66.7118 59.9181 65.1915C59.9626 63.6713 59.2958 62.9559 58.4068 62.9559ZM65.341 68.858C64.1853 68.858 63.074 68.4109 62.5851 68.0979L63.3407 66.8012C63.7852 67.0695 64.6742 67.4719 65.4743 67.4719C65.9633 67.4719 66.5411 67.3825 66.5411 66.8012C66.5411 66.2647 65.9188 66.0858 65.0743 65.8622C64.0519 65.5492 62.8962 65.1468 62.8962 63.8502C62.8962 62.4193 64.1408 61.5698 65.7855 61.5698C66.8967 61.5698 67.7412 61.9722 68.1857 62.3746L67.2967 63.403C66.8078 63.09 66.2744 62.8665 65.741 62.8665C64.9854 62.8665 64.6298 63.1348 64.6298 63.5372C64.6298 63.9843 65.0298 64.1184 65.741 64.3867C66.8078 64.7444 68.2302 65.0574 68.2302 66.4435C68.2746 67.8296 67.119 68.858 65.341 68.858ZM10.7568 15.6048H9.24548C8.97878 15.6048 8.80098 15.4707 8.66764 15.2471L7.1119 12.1619V15.2024C7.1119 15.426 6.9341 15.6048 6.71185 15.6048H5.60061C5.37836 15.6048 5.20056 15.426 5.20056 15.2024V5.8127C5.20056 5.58913 5.37836 5.41028 5.60061 5.41028H6.71185C6.9341 5.41028 7.1119 5.58913 7.1119 5.8127V11.3124L8.44539 9.03203C8.57874 8.80847 8.75653 8.71904 9.02323 8.71904H10.4012C10.6234 8.71904 10.7123 8.98732 10.579 9.16617L8.80098 11.6254L10.8901 15.2024C11.1124 15.3813 11.0235 15.6048 10.7568 15.6048ZM14.0016 15.6048H12.8904C12.6681 15.6048 12.4903 15.426 12.4903 15.2024V5.8127C12.4903 5.58913 12.6681 5.41028 12.8904 5.41028H14.0016C14.2238 5.41028 14.4016 5.58913 14.4016 5.8127V15.2471C14.4016 15.426 14.2238 15.6048 14.0016 15.6048ZM21.5136 15.6048H20.669C20.4468 15.6048 20.3134 15.4707 20.269 15.2471L20.1801 14.8C19.6467 15.3813 18.98 15.6943 18.2243 15.6943C17.1575 15.6943 16.4019 14.9789 16.4019 13.9057V9.07674C16.4019 8.85318 16.5797 8.67433 16.8019 8.67433H17.9132C18.1354 8.67433 18.3132 8.85318 18.3132 9.07674V13.548C18.3132 13.9057 18.5355 14.174 18.98 14.174C19.6023 14.174 20.0912 13.5928 20.0912 12.7432V9.07674C20.0912 8.85318 20.269 8.67433 20.4912 8.67433H21.6025C21.8247 8.67433 22.0025 8.85318 22.0025 9.07674V15.2024C21.9136 15.426 21.7358 15.6048 21.5136 15.6048ZM27.2476 15.6943C26.4031 15.6943 25.9586 15.2918 25.603 14.8447L25.5141 15.2024C25.4696 15.426 25.2474 15.6048 25.0251 15.6048H24.2695C24.0472 15.6048 23.8694 15.426 23.8694 15.2024V5.8127C23.8694 5.58913 24.0472 5.41028 24.2695 5.41028H25.3807C25.603 5.41028 25.7808 5.58913 25.7808 5.8127V9.21088C26.0919 8.80847 26.5809 8.45076 27.3365 8.45076C28.181 8.45076 29.7812 9.03203 29.7812 11.9384C29.7812 15.1577 28.4477 15.6943 27.2476 15.6943ZM26.7587 10.1051C26.1364 10.1051 25.6919 10.7311 25.6919 12.1172C25.6919 13.5033 26.1364 14.0399 26.7587 14.0399C27.4254 14.0399 27.8699 13.6375 27.8699 12.1172C27.8254 10.6864 27.5143 10.1051 26.7587 10.1051ZM33.5595 15.6943C32.8038 15.6943 32.0482 15.4707 31.4259 15.2471C31.2036 15.1577 31.1147 14.9789 31.1592 14.8L31.4259 13.9952C31.5148 13.7716 31.6481 13.6375 31.8704 13.7269C32.4038 13.9057 32.9372 14.1293 33.4261 14.1293C33.8706 14.1293 34.0928 13.9057 34.0928 13.5928C34.0928 13.1456 33.6039 12.9221 33.0261 12.6538C32.2704 12.2514 31.337 11.8489 31.337 10.5523C31.337 9.38973 32.0926 8.49547 33.6039 8.49547C34.3151 8.49547 34.7151 8.54019 35.3374 8.80847C35.5597 8.89789 35.693 9.07674 35.6041 9.2556L35.3374 9.92629C35.2485 10.1499 35.0707 10.284 34.8929 10.1946C34.6262 10.1051 34.1817 9.92629 33.7373 9.92629C33.3372 9.92629 33.1594 10.1946 33.1594 10.4628C33.1594 10.7758 33.7372 11.0441 34.3151 11.3571C35.0707 11.7595 35.8708 12.2514 35.8708 13.548C36.0042 14.5764 35.3374 15.6943 33.5595 15.6943ZM42.0938 15.4707C41.6493 15.6496 41.0714 15.739 40.5825 15.739C38.7156 15.739 37.5155 14.6212 37.5155 12.0278C37.5155 10.0604 38.5823 8.54019 40.7158 8.54019C41.1603 8.54019 41.6048 8.62961 42.0049 8.80847C42.2716 8.89789 42.316 9.07674 42.2716 9.2556L42.0049 10.0604C41.9604 10.2393 41.8271 10.3734 41.5604 10.284C41.3381 10.2393 41.2048 10.1499 40.8492 10.1499C39.9158 10.1499 39.4268 10.7311 39.4268 12.0278C39.4268 13.4586 39.8269 14.0846 40.8936 14.0846C41.1603 14.0846 41.5159 14.0399 41.7826 13.9505C42.0493 13.861 42.1382 13.9952 42.1827 14.2187L42.3605 15.0683C42.3605 15.2471 42.316 15.3813 42.0938 15.4707ZM49.0724 15.6048H48.0056C47.7833 15.6048 47.6055 15.426 47.6055 15.2024V10.6864C47.6055 10.3287 47.4722 10.0604 47.0277 10.0604C46.4054 10.0604 45.9609 10.6417 45.9609 11.4912V15.2024C45.9609 15.426 45.7831 15.6048 45.5609 15.6048H44.4496C44.2274 15.6048 44.0496 15.426 44.0496 15.2024V5.8127C44.0496 5.58913 44.2274 5.41028 44.4496 5.41028H45.5609C45.7831 5.41028 45.9609 5.58913 45.9609 5.8127V9.2556C46.361 8.85318 46.9833 8.49547 47.6944 8.49547C48.7612 8.49547 49.4724 9.21088 49.4724 10.284V15.2024C49.4724 15.426 49.2946 15.6048 49.0724 15.6048ZM56.5844 15.6048H55.7398C55.5176 15.6048 55.3842 15.4707 55.3398 15.2471L55.2509 14.8C54.7175 15.3813 54.0508 15.6943 53.2951 15.6943C52.2283 15.6943 51.4727 14.9789 51.4727 13.9057V9.07674C51.4727 8.85318 51.6505 8.67433 51.8727 8.67433H52.984C53.2062 8.67433 53.384 8.85318 53.384 9.07674V13.548C53.384 13.9057 53.6063 14.174 54.0507 14.174C54.673 14.174 55.162 13.5928 55.162 12.7432V9.07674C55.162 8.85318 55.3398 8.67433 55.562 8.67433H56.6733C56.8955 8.67433 57.0733 8.85318 57.0733 9.07674V15.2024C56.9844 15.426 56.8066 15.6048 56.5844 15.6048ZM60.4515 15.6048H59.3403C59.118 15.6048 58.9402 15.426 58.9402 15.2024V5.8127C58.9402 5.58913 59.118 5.41028 59.3403 5.41028H60.4515C60.6738 5.41028 60.8515 5.58913 60.8515 5.8127V15.2471C60.8515 15.426 60.6738 15.6048 60.4515 15.6048ZM67.7857 12.6985H64.5409C64.6298 13.4586 64.8076 14.0399 65.9633 14.0399C66.5411 14.0399 66.9412 13.9057 67.2967 13.7716C67.5634 13.6822 67.6523 13.8163 67.6968 13.9952L67.9635 14.8447C68.0524 15.0683 67.919 15.2024 67.7412 15.2918C67.0745 15.5601 66.4967 15.6943 65.5632 15.6943C63.7408 15.6943 62.5406 14.5317 62.5406 12.0725C62.5406 9.971 63.6074 8.49547 65.341 8.49547C67.2079 8.49547 68.0968 9.79215 68.0968 12.3408C68.1857 12.5196 68.0079 12.6985 67.7857 12.6985ZM65.4743 9.971C64.8076 9.971 64.6298 10.6864 64.5853 11.536H66.3633C66.3189 10.6864 66.1411 9.971 65.4743 9.971Z" fill="white"/>
<path d="M5.28955 24.4581V24.3687C5.28955 22.9826 6.22299 21.9989 7.55648 21.9989C8.84552 21.9989 9.82342 22.9379 9.82342 24.324V24.4134C9.82342 25.7995 8.88997 26.7832 7.55648 26.7832C6.22299 26.7832 5.28955 25.7995 5.28955 24.4581ZM9.02332 24.4581V24.4134C9.02332 23.3403 8.44548 22.6696 7.51203 22.6696C6.57859 22.6696 6.00075 23.3403 6.00075 24.4134V24.5028C6.00075 25.5312 6.57859 26.2466 7.51203 26.2466C8.44548 26.1572 9.02332 25.4865 9.02332 24.4581Z" fill="white"/>
<path d="M10.4901 25.2629H11.2013C11.2458 25.7995 11.5569 26.1572 12.2681 26.1572C12.9793 26.1572 13.246 25.9336 13.246 25.4418C13.246 24.9499 12.8904 24.8158 12.1792 24.6816C10.9791 24.4581 10.579 24.1451 10.579 23.3403C10.579 22.4907 11.4236 22.0436 12.1347 22.0436C12.9348 22.0436 13.646 22.3566 13.7794 23.385H13.0682C12.9793 22.8931 12.6681 22.6696 12.0903 22.6696C11.5569 22.6696 11.2458 22.9378 11.2458 23.3403C11.2458 23.7427 11.468 23.9215 12.3125 24.0557C13.246 24.2345 13.9127 24.4581 13.9127 25.3971C13.9127 26.2466 13.3349 26.7832 12.2236 26.7832C11.1569 26.7832 10.5346 26.2019 10.4901 25.2629Z" fill="white"/>
<path d="M15.1129 25.5312V22.7143H14.4462V22.0883H15.1129V21.0599H15.8241V22.0883H16.8909V22.7143H15.8241V25.4865C15.8241 25.9337 16.0464 26.1572 16.402 26.1572C16.6242 26.1572 16.802 26.1125 16.9798 26.0678V26.6938C16.8464 26.7385 16.6687 26.7832 16.3575 26.7832C15.5574 26.7385 15.1129 26.2466 15.1129 25.5312Z" fill="white"/>
<path d="M17.6466 25.2629H18.3578C18.4023 25.7995 18.7134 26.1572 19.4246 26.1572C20.1358 26.1572 20.4025 25.9336 20.4025 25.4418C20.4025 24.9499 20.0469 24.8158 19.3357 24.6816C18.1356 24.4581 17.7355 24.1451 17.7355 23.3403C17.7355 22.4907 18.58 22.0436 19.2912 22.0436C20.0913 22.0436 20.8025 22.3566 20.9359 23.385H20.2247C20.1358 22.8931 19.8246 22.6696 19.2468 22.6696C18.7134 22.6696 18.4023 22.9378 18.4023 23.3403C18.4023 23.7427 18.6245 23.9215 19.469 24.0557C20.4025 24.2345 21.0692 24.4581 21.0692 25.3971C21.0692 26.2466 20.4914 26.7832 19.3801 26.7832C18.3578 26.7832 17.6911 26.2019 17.6466 25.2629Z" fill="white"/>
<path d="M21.8248 24.4581V24.3687C21.8248 22.9826 22.8027 21.9989 24.0473 21.9989C24.9808 21.9989 25.8697 22.446 26.0475 23.6086H25.3364C25.203 22.8932 24.7141 22.6249 24.0473 22.6249C23.2028 22.6249 22.5805 23.2956 22.5805 24.3687V24.4581C22.5805 25.5759 23.2028 26.2019 24.0918 26.2019C24.7585 26.2019 25.3364 25.8442 25.3808 25.0841H26.0475C25.9586 26.0678 25.1586 26.8279 24.0473 26.8279C22.8027 26.7832 21.8248 25.8889 21.8248 24.4581Z" fill="white"/>
<path d="M27.0699 19.8973H27.7811V22.8037C28.0034 22.3566 28.4923 21.9988 29.248 21.9988C30.1814 21.9988 30.8482 22.5354 30.8482 23.8321V26.649H30.137V23.7874C30.137 22.9825 29.7814 22.6248 29.0702 22.6248C28.4034 22.6248 27.7811 23.072 27.7811 23.8768V26.649H27.0699V19.8973Z" fill="white"/>
<path d="M31.5593 22.0883H32.3594L33.4262 25.7994L34.5375 22.0883H35.1597L36.1821 25.7994L37.2489 22.0883H38.0045L36.5821 26.6937H35.782L34.8486 23.2508L33.7818 26.6937H32.9817L31.5593 22.0883Z" fill="white"/>
<path d="M38.449 24.4581V24.3687C38.449 22.9826 39.338 21.9989 40.5826 21.9989C41.6494 21.9989 42.6272 22.6249 42.6272 24.2793V24.5028H39.2046C39.2491 25.5312 39.738 26.1125 40.6715 26.1125C41.3827 26.1125 41.7827 25.8442 41.8716 25.3077H42.5828C42.405 26.2466 41.6494 26.6938 40.627 26.6938C39.3824 26.7832 38.449 25.8442 38.449 24.4581ZM41.9161 23.9663C41.8272 23.0273 41.3382 22.6249 40.627 22.6249C39.8714 22.6249 39.3824 23.1167 39.2491 23.9663H41.9161Z" fill="white"/>
<path d="M43.6052 20.6575C43.6052 20.3892 43.8275 20.1656 44.0942 20.1656C44.3609 20.1656 44.5831 20.3892 44.5831 20.6575C44.5831 20.9258 44.3609 21.1493 44.0942 21.1493C43.8275 21.1493 43.6052 20.9258 43.6052 20.6575ZM43.7386 22.0883H44.4498V26.6937H43.7386V22.0883Z" fill="white"/>
<path d="M45.2498 26.6043L47.9612 22.7142H45.5165V22.0883H49.0724V22.2224L46.4499 26.0677H49.0724V26.6937H45.2942V26.6043H45.2498Z" fill="white"/>
</g>
</g>
<defs>
<clipPath id="clip0_4424_204751">
<rect width="189" height="74" fill="white"/>
</clipPath>
<clipPath id="clip1_4424_204751">
<rect width="189" height="74" fill="white"/>
</clipPath>
</defs>
</svg>
