<svg width="236" height="73" viewBox="0 0 236 73" fill="none" xmlns="http://www.w3.org/2000/svg">
<g clip-path="url(#clip0_5046_529)">
<path d="M171.331 0.361694H176.422L162.192 46.1557H157.102L171.331 0.361694Z" fill="#00A2AD"/>
<path d="M235.537 72.9088V71.1012H234.727C233.918 71.1012 233.686 70.7396 233.686 69.8961V64.2321H235.653V62.5449H233.686V59.4116H231.72V62.5449H230.563V64.2321H231.72V70.0166C231.72 70.8602 231.951 71.5832 232.529 72.0653C233.108 72.6678 233.802 72.9088 234.496 72.9088H235.537ZM228.365 72.9088V66.1602C228.48 65.1962 228.133 64.1116 227.439 63.3885C226.745 62.6654 225.82 62.3039 224.778 62.3039C223.737 62.3039 222.812 62.6654 222.118 63.509V58.2065H220.151V72.9088H222.118V66.4013C222.002 65.7987 222.233 65.1962 222.696 64.7141C223.043 64.3526 223.622 63.991 224.316 63.991C224.894 63.991 225.473 64.2321 225.935 64.7141C226.282 65.0756 226.514 65.7987 226.514 66.4013V72.9088H228.365ZM218.069 71.7037L216.796 70.3781C216.449 71.1012 215.639 71.3422 214.829 71.3422C214.02 71.3422 213.325 71.1012 212.978 70.3781C212.4 69.5345 212.284 68.691 212.4 67.7269C212.284 66.8833 212.516 65.9192 212.978 65.1962C213.325 64.5936 214.135 64.2321 214.829 64.2321C215.639 64.2321 216.333 64.5936 216.796 65.1962L218.069 63.8705C217.259 62.9065 216.102 62.3039 214.829 62.3039C212.631 62.3039 210.318 63.6295 210.318 67.6064C210.318 71.5832 212.516 72.9088 214.829 72.9088C215.986 73.1499 217.259 72.5473 218.069 71.7037ZM205.806 69.173C205.806 69.7756 205.69 70.2576 205.459 70.7396C204.88 71.1012 204.302 71.4627 203.608 71.3422C202.335 71.3422 201.757 70.7396 201.757 69.7756C201.757 68.8115 202.451 68.2089 203.608 68.2089H206.037L205.806 69.173ZM207.773 72.9088V65.9192C207.773 63.3885 206.5 62.1834 203.724 62.1834C202.451 62.0629 200.947 62.5449 200.137 63.75L201.41 64.9551C201.988 64.2321 202.682 63.8705 203.608 63.991C205.227 63.991 205.806 64.7141 205.806 65.9192V66.6423H203.145C200.716 66.6423 199.674 67.8474 199.674 69.655C199.674 70.4986 199.906 71.3422 200.484 71.8242C201.294 72.5473 202.22 72.9088 203.145 72.7883C204.186 72.9088 205.227 72.5473 205.922 71.7037V72.6678L207.773 72.9088ZM197.361 72.9088V66.2808C197.361 65.1962 197.129 64.1116 196.32 63.3885C195.625 62.6654 194.7 62.4244 193.774 62.4244C192.618 62.4244 191.345 63.027 190.651 63.991C189.957 63.027 188.916 62.3039 187.759 62.4244C186.718 62.4244 185.792 62.7859 185.098 63.6295V62.5449H183.131V73.0293H185.098V66.5218C184.982 65.7987 185.214 65.3167 185.676 64.8346C186.024 64.4731 186.718 64.1116 187.296 64.1116C187.874 64.1116 188.453 64.3526 188.916 64.8346C189.378 65.3167 189.494 65.9192 189.494 66.5218V72.7883H191.461V66.2808C191.461 65.6782 191.576 65.0756 192.039 64.5936C192.386 64.2321 192.965 63.8705 193.659 63.8705C194.816 63.8705 195.625 64.5936 195.625 66.1602V72.4268L197.361 72.9088ZM173.761 66.8833H169.249C169.249 66.2808 169.365 65.9192 169.48 65.5577C169.827 64.7141 170.637 64.2321 171.447 64.2321C172.373 64.2321 173.067 64.8346 173.414 65.5577C173.645 65.9192 173.761 66.4013 173.761 66.8833ZM175.843 68.3294V67.3653C175.843 64.3526 174.224 62.3039 171.678 62.3039C169.133 62.3039 167.514 64.2321 167.514 67.6064C167.514 71.5832 169.48 72.9088 172.025 72.9088C173.529 73.0293 174.802 72.3063 175.727 71.2217L174.455 70.0166C173.761 70.7396 172.951 71.1012 172.025 71.1012C171.216 71.1012 170.522 70.8602 170.059 70.2576C169.596 69.655 169.365 68.932 169.365 68.2089L175.843 68.3294ZM166.241 63.268C165.547 62.5449 164.737 62.1834 163.812 62.3039C162.771 62.3039 161.845 62.6654 161.151 63.509V62.4244H159.184V72.9088H161.151V66.6423C161.151 66.0397 161.267 65.4372 161.729 64.9551C162.076 64.5936 162.655 64.2321 163.233 64.2321C163.812 64.2321 164.39 64.4731 164.737 64.9551L166.241 63.268ZM154.673 66.8833H150.161C150.161 66.2808 150.276 65.9192 150.392 65.5577C150.739 64.7141 151.549 64.2321 152.475 64.3526C153.4 64.3526 154.094 64.9551 154.441 65.6782C154.673 65.9192 154.673 66.4013 154.673 66.8833ZM156.639 68.3294V67.3653C156.639 64.3526 155.02 62.3039 152.475 62.3039C149.814 62.3039 148.31 64.2321 148.31 67.6064C148.31 71.5832 150.276 72.9088 152.822 72.9088C154.325 73.0293 155.598 72.3063 156.524 71.2217L155.251 70.0166C154.557 70.7396 153.747 71.1012 152.822 71.1012C152.012 71.1012 151.318 70.8602 150.855 70.2576C150.276 69.655 150.045 68.932 150.161 68.0884H156.755L156.639 68.3294ZM145.765 58.2065H143.682V60.3757H145.765V58.2065ZM145.765 62.4244H143.682V72.9088H145.649L145.765 62.4244ZM141.831 63.268C141.137 62.5449 140.327 62.1834 139.402 62.3039C138.361 62.3039 137.435 62.6654 136.741 63.509V62.4244H134.774V72.9088H136.741V66.6423C136.741 66.0397 136.857 65.4372 137.32 64.9551C137.782 64.4731 138.245 64.2321 138.824 64.2321C139.402 64.2321 139.98 64.4731 140.327 64.9551L141.831 63.268ZM132.808 63.268C132.114 62.5449 131.188 62.1834 130.263 62.3039C129.222 62.3039 128.296 62.6654 127.602 63.509V62.4244H125.635V72.9088H127.602V66.6423C127.602 66.0397 127.718 65.4372 128.18 64.9551C128.643 64.4731 129.106 64.2321 129.684 64.2321C130.263 64.2321 130.841 64.4731 131.188 64.9551L132.808 63.268ZM120.776 69.173C120.776 69.7756 120.661 70.2576 120.429 70.7396C119.851 71.1012 119.273 71.4627 118.578 71.3422C117.306 71.3422 116.727 70.7396 116.727 69.7756C116.727 68.8115 117.422 68.2089 118.578 68.2089H121.008L120.776 69.173ZM122.743 72.9088V65.9192C122.743 63.3885 121.471 62.1834 118.694 62.1834C117.422 62.0629 115.918 62.5449 115.108 63.75L116.38 64.9551C116.959 64.2321 117.653 63.8705 118.578 63.991C120.198 63.991 120.776 64.7141 120.776 65.9192V66.6423H118.116C115.686 66.6423 114.645 67.8474 114.645 69.655C114.645 70.4986 114.876 71.3422 115.455 71.8242C116.265 72.5473 117.19 72.9088 118.116 72.7883C119.157 72.9088 120.082 72.5473 120.776 71.7037V72.6678L122.743 72.9088ZM113.604 72.9088L108.629 63.991L113.141 58.2065H110.48L104.696 65.6782V58.2065H102.614V72.9088H104.696V68.691L107.125 65.6782L111.059 72.9088H113.604ZM94.4 72.9088V66.2808C94.5157 65.1962 94.1686 64.1116 93.3588 63.3885C92.6647 62.6654 91.7392 62.4244 90.8137 62.4244C89.7725 62.4244 88.847 62.7859 88.1529 63.6295V62.5449H86.1863V73.0293H88.1529V66.5218C88.0372 65.9192 88.2686 65.3167 88.7314 64.8346C89.0784 64.4731 89.6568 64.1116 90.351 64.1116C91.5078 64.1116 92.3176 64.8346 92.3176 66.4013V72.6678H94.4V72.9088ZM81.6745 66.8833H77.1627C77.1627 66.2808 77.2784 65.9192 77.3941 65.5577C77.7412 64.7141 78.551 64.2321 79.3608 64.2321C80.1706 64.2321 80.9804 64.8346 81.3274 65.5577C81.6745 65.9192 81.7902 66.4013 81.6745 66.8833ZM83.7568 68.3294V67.3653C83.7568 64.3526 82.1372 62.3039 79.5921 62.3039C76.9314 62.3039 75.4274 64.2321 75.4274 67.6064C75.4274 71.5832 77.3941 72.9088 79.9392 72.9088C81.4431 73.0293 82.7157 72.3063 83.6412 71.2217L82.3686 70.0166C81.6745 70.7396 80.8647 71.1012 79.9392 71.1012C79.1294 71.1012 78.4353 70.8602 77.9725 70.2576C77.5098 69.655 77.2784 68.932 77.2784 68.2089L83.7568 68.3294ZM72.8823 72.9088V66.2808C72.998 65.1962 72.651 64.1116 71.8412 63.3885C71.147 62.6654 70.2216 62.4244 69.2961 62.4244C68.2549 62.4244 67.3294 62.7859 66.6353 63.6295V62.5449H64.6686V73.0293H66.6353V66.5218C66.5196 65.9192 66.751 65.3167 67.2137 64.8346C67.5608 64.4731 68.1392 64.1116 68.8333 64.1116C69.4118 64.1116 69.9902 64.3526 70.4529 64.8346C70.8 65.1962 71.0314 65.9192 71.0314 66.5218V72.7883H72.8823V72.9088ZM62.8176 63.268C62.1235 62.5449 61.3137 62.1834 60.3882 62.3039C59.347 62.3039 58.4216 62.6654 57.7274 63.509V62.4244H55.6451V72.9088H57.6118V66.6423C57.6118 66.0397 57.7274 65.4372 58.1902 64.9551C58.5372 64.5936 59.1157 64.2321 59.6941 64.2321C60.2725 64.2321 60.851 64.4731 61.198 64.9551L62.8176 63.268ZM51.1333 66.8833H46.6216C46.6216 66.2808 46.7372 65.9192 46.8529 65.5577C47.2 64.7141 48.0098 64.2321 48.8196 64.2321C49.6294 64.2321 50.4392 64.8346 50.7863 65.5577C51.1333 65.9192 51.249 66.2808 51.1333 66.8833ZM53.2157 68.3294V67.3653C53.2157 64.3526 51.5961 62.3039 49.051 62.3039C46.5059 62.3039 44.8863 64.2321 44.8863 67.6064C44.8863 71.5832 46.8529 72.9088 49.398 72.9088C50.902 73.0293 52.1745 72.3063 53.1 71.2217L51.8274 70.0166C51.1333 70.7396 50.3235 71.1012 49.398 71.1012C48.5882 71.1012 47.8941 70.8602 47.4314 70.2576C46.9686 69.655 46.7372 68.932 46.7372 68.2089L53.2157 68.3294ZM42.9196 72.9088V70.9807H36.2098V58.3271H34.1274V73.0293L42.9196 72.9088ZM24.2941 67.6064C24.4098 68.5705 24.1784 69.655 23.6 70.4986C23.2529 70.8602 22.6745 71.2217 22.0961 71.2217C21.5176 71.2217 21.0549 70.9807 20.5921 70.4986C19.898 69.655 19.7823 68.691 19.898 67.6064C19.7823 66.6423 20.0137 65.5577 20.5921 64.7141C20.9392 64.3526 21.5176 64.1116 22.0961 64.1116C22.6745 64.1116 23.1372 64.2321 23.6 64.7141C24.1784 65.5577 24.4098 66.6423 24.2941 67.6064ZM26.3765 67.6064C26.4921 66.0397 26.1451 64.5936 25.2196 63.509C24.4098 62.6654 23.3686 62.3039 22.2118 62.3039C21.1706 62.3039 20.0137 62.6654 19.2039 63.509C18.2784 64.5936 17.9314 66.1602 18.047 67.6064C17.9314 69.173 18.2784 70.6191 19.2039 71.7037C20.0137 72.5473 21.0549 72.9088 22.2118 72.9088C23.2529 72.9088 24.4098 72.5473 25.2196 71.7037C26.1451 70.7396 26.6078 69.173 26.3765 67.6064ZM17.0059 58.2065H14.8078L12.2627 68.691L9.48626 58.4476H7.86665L5.09018 68.932L2.54509 58.4476H0.347046L4.04901 73.1499H5.89999L8.79214 62.6654L11.6843 72.9088H13.5353L17.0059 58.2065Z" fill="black"/>
<path d="M0.347046 46.1557H5.20587V0.361694H0.347046V46.1557ZM44.1921 33.5021C44.1921 37.72 40.9529 41.2148 36.9039 41.2148H22.4431V25.9099H37.0196C40.9529 25.9099 44.1921 29.1637 44.1921 33.5021ZM43.3823 13.1358C43.3823 17.3537 40.1431 20.728 36.0941 20.728H22.2118V5.42314H35.9784C40.1431 5.42314 43.3823 8.91794 43.3823 13.1358ZM43.8451 22.8972C47.7784 19.5229 49.398 13.8589 47.6627 8.79743C45.9274 3.73599 41.3 0.361694 36.2098 0.361694H17.4686V46.0352H37.0196C42.4569 46.0352 47.0843 42.4199 48.5882 37.1174C50.2078 31.815 48.1255 26.0304 43.8451 22.8972ZM77.7412 28.5612H65.3627L71.6098 8.67692L77.7412 28.5612ZM88.3843 46.1557L74.1549 0.361694H69.0647L54.7196 46.1557H59.8098L63.7431 33.6226H79.2451L83.1784 46.1557H88.3843ZM150.739 0.361694H145.649L133.965 37.961L122.396 0.361694H117.306L105.39 37.8405L93.8215 0.361694H88.7314L102.961 46.0352H108.051L119.735 8.4359L131.42 46.0352H136.51L150.739 0.361694Z" fill="black"/>
<path d="M181.627 0.361694H186.718L172.488 46.1557H167.398L181.627 0.361694Z" fill="black"/>
</g>
<defs>
<clipPath id="clip0_5046_529">
<rect width="236" height="73" fill="white"/>
</clipPath>
</defs>
</svg>
